<?xml version="1.0" standalone="no"?>
<!DOCTYPE svg PUBLIC "-//W3C//DTD SVG 20010904//EN"
 "http://www.w3.org/TR/2001/REC-SVG-20010904/DTD/svg10.dtd">
<svg version="1.0" xmlns="http://www.w3.org/2000/svg"
 width="957.000000pt" height="960.000000pt" viewBox="0 0 957.000000 960.000000"
 preserveAspectRatio="xMidYMid meet">

<g transform="translate(0.000000,960.000000) scale(0.100000,-0.100000)"
fill="#000000" stroke="none">
<path d="M0 4800 l0 -4800 4785 0 4785 0 0 3925 0 3925 -23 0 c-30 0 -67 27
-67 49 0 37 32 109 60 136 l30 29 0 318 c0 278 -2 317 -15 312 -8 -4 -15 -1
-15 5 0 6 7 11 15 11 8 0 15 5 15 10 0 6 -5 10 -12 10 -9 0 -9 3 0 12 9 9 12
74 12 230 l0 218 -26 0 c-21 0 -24 3 -16 13 9 10 4 18 -21 33 -18 10 -43 20
-57 20 -40 2 -172 40 -210 60 l-35 19 34 3 c18 2 38 -1 44 -7 6 -6 21 -11 34
-11 13 0 23 -4 23 -10 0 -18 29 -11 42 10 7 11 20 20 29 20 16 0 29 19 29 41
0 5 -7 9 -16 9 -8 0 -12 -4 -9 -10 11 -18 -3 -11 -32 16 -23 21 -25 28 -16 44
10 16 7 22 -20 42 -18 14 -40 28 -50 31 -11 4 -21 16 -24 27 -3 10 -23 28 -44
39 l-39 21 -4595 0 -4595 0 0 -4800z m9336 4588 c16 0 22 -7 22 -25 0 -31 -23
-40 -47 -19 -10 9 -23 16 -29 16 -6 0 -22 5 -36 11 -38 18 -20 32 28 24 22 -4
51 -7 62 -7z m129 -178 c17 -4 22 -8 13 -9 -22 -1 -23 -25 -3 -81 8 -23 15
-49 15 -56 0 -15 -35 -54 -48 -54 -13 0 -100 115 -116 153 -7 19 -11 39 -7 45
12 20 55 30 86 20 16 -6 44 -13 60 -18z m22 -306 c3 -8 1 -25 -5 -37 -5 -12
-13 -30 -16 -41 -4 -11 -12 -16 -21 -12 -10 3 -15 1 -13 -7 3 -16 -33 -97 -44
-97 -10 0 -11 24 0 34 4 4 7 11 8 14 0 4 3 14 6 22 3 8 12 37 19 63 17 67 51
99 66 61z m-87 -213 c0 -10 -30 -24 -37 -17 -3 3 -2 9 2 15 8 13 35 15 35 2z
m123 -68 c-10 -16 -29 -50 -42 -78 -12 -27 -27 -57 -31 -65 -4 -9 -11 -36 -15
-60 -17 -109 -77 -170 -117 -120 -16 20 -16 23 2 58 11 20 20 42 20 48 0 6 7
17 15 24 8 7 13 16 10 20 -3 5 -1 11 4 14 5 3 24 32 41 63 18 31 38 63 45 70
8 7 17 22 20 33 4 11 18 26 33 34 23 12 27 12 30 0 2 -8 -5 -26 -15 -41z
m-158 27 c-3 -5 -12 -10 -18 -10 -7 0 -6 4 3 10 19 12 23 12 15 0z m-55 -114
c0 -3 -4 -8 -10 -11 -5 -3 -10 -1 -10 4 0 6 5 11 10 11 6 0 10 -2 10 -4z m-30
-66 c0 -5 -4 -10 -9 -10 -6 0 -13 5 -16 10 -3 6 1 10 9 10 9 0 16 -4 16 -10z
m0 -30 c0 -5 -7 -10 -16 -10 -8 0 -12 5 -9 10 3 6 10 10 16 10 5 0 9 -4 9 -10z
m-3552 -3050 c-9 -15 -16 -16 -40 -8 -44 16 -42 26 6 26 41 0 44 -1 34 -18z
m47 10 c3 -5 1 -10 -4 -10 -6 0 -11 5 -11 10 0 6 2 10 4 10 3 0 8 -4 11 -10z
m64 -14 c8 -10 9 -16 1 -21 -5 -3 -10 0 -10 9 0 8 -6 17 -12 19 -8 4 -9 6 -2
6 6 1 17 -5 23 -13z m-67 -38 c-4 -17 -2 -20 13 -14 10 4 25 1 34 -8 21 -18
61 -30 61 -18 0 14 40 22 41 9 0 -8 2 -8 6 1 2 6 15 12 28 12 16 0 25 -7 29
-25 6 -25 39 -35 50 -16 9 13 54 -11 60 -31 2 -10 14 -18 25 -18 15 0 21 -6
21 -21 0 -11 14 -33 30 -47 17 -15 30 -32 30 -39 0 -7 7 -13 16 -13 9 0 18 -9
21 -20 3 -11 9 -18 13 -15 12 7 70 -53 66 -68 -1 -7 -1 -9 1 -4 9 15 33 6 33
-13 0 -11 10 -30 22 -42 19 -19 20 -23 6 -31 -13 -9 -10 -17 20 -56 19 -25 39
-49 45 -53 7 -4 7 -11 -2 -22 -8 -9 -9 -16 -4 -16 16 0 92 -110 86 -126 -3 -7
0 -14 7 -14 6 0 9 -4 5 -9 -3 -6 2 -14 11 -19 13 -7 10 -10 -15 -15 -36 -7
-37 -17 -16 -97 8 -30 15 -56 15 -57 0 -5 -39 -3 -54 3 -9 3 -16 11 -16 18 0
6 -15 18 -33 26 -23 11 -40 32 -61 73 -23 45 -33 57 -52 57 -13 0 -24 -3 -24
-7 0 -5 -13 -8 -30 -8 -16 0 -30 3 -30 7 0 3 -35 6 -79 6 -43 -1 -84 3 -92 7
-8 5 -11 5 -7 0 4 -4 1 -17 -7 -29 -21 -28 -19 -49 3 -44 20 6 46 -17 37 -32
-14 -23 15 -8 34 18 21 27 21 27 27 5 3 -13 10 -21 14 -18 5 3 29 -2 55 -10
25 -9 54 -15 63 -14 35 3 48 -2 27 -11 -18 -8 -18 -9 -2 -9 10 -1 34 -18 53
-38 72 -77 79 -83 82 -73 2 6 13 0 24 -12 15 -17 18 -19 14 -5 -3 9 -1 17 4
17 6 0 10 -7 10 -15 0 -8 5 -15 11 -15 5 0 8 -4 5 -9 -3 -4 3 -16 14 -26 10
-9 22 -30 25 -46 4 -16 11 -29 17 -29 6 0 8 -6 5 -14 -3 -8 3 -26 14 -39 10
-14 19 -36 19 -50 0 -14 5 -27 11 -29 7 -2 12 -23 12 -46 0 -23 4 -39 8 -36 5
3 9 1 9 -5 0 -5 3 -16 6 -25 4 -11 1 -16 -11 -16 -12 0 -16 -6 -12 -20 4 -16
0 -20 -20 -20 -22 0 -24 -2 -12 -16 20 -25 38 -83 27 -90 -5 -3 -5 -11 1 -18
6 -7 8 -16 4 -20 -4 -4 -1 -12 7 -17 13 -9 12 -10 -2 -5 -11 3 -19 -1 -21 -12
-7 -27 -1 -72 11 -84 7 -7 8 -16 3 -22 -10 -12 -44 -157 -45 -193 -1 -13 -5
-23 -9 -23 -5 0 -6 -4 -2 -9 3 -5 -2 -16 -10 -24 -8 -9 -15 -22 -15 -31 0 -19
22 -34 28 -18 7 23 40 57 48 50 4 -4 1 -14 -5 -22 -7 -8 -8 -17 -3 -20 15 -9
11 -54 -4 -60 -8 -3 -14 -12 -14 -21 0 -8 -6 -15 -14 -15 -8 0 -16 -13 -18
-29 -3 -20 -1 -28 6 -24 6 4 5 -1 -3 -10 -9 -11 -10 -17 -2 -17 6 0 11 -13 11
-28 0 -21 -5 -28 -21 -29 -20 -2 -20 -1 -5 16 22 24 20 30 -6 23 -17 -4 -20
-2 -15 12 4 10 1 19 -8 22 -10 4 -15 20 -15 45 0 21 -5 39 -11 39 -6 0 -8 8
-4 19 7 23 -18 35 -44 22 -14 -8 -17 -23 -16 -85 0 -47 -3 -76 -10 -76 -5 0
-3 -4 5 -10 12 -8 12 -10 -3 -16 -9 -3 -14 -11 -11 -16 4 -6 -1 -8 -14 -4 -17
6 -20 3 -18 -16 1 -13 6 -29 10 -36 4 -7 2 -12 -4 -12 -6 0 -8 -10 -5 -23 4
-15 -1 -32 -14 -49 -12 -14 -21 -36 -21 -48 0 -13 -4 -19 -12 -14 -8 5 -9 0
-6 -14 4 -12 2 -20 -3 -16 -5 3 -9 -7 -9 -23 0 -21 -3 -24 -9 -13 -6 8 -7 18
-5 22 8 13 -6 9 -22 -6 -8 -8 -14 -19 -14 -25 0 -6 -5 -11 -11 -11 -12 0 -8
-51 6 -82 6 -14 2 -18 -16 -18 -21 -1 -22 -2 -6 -11 9 -5 17 -14 17 -19 0 -15
-40 -12 -40 3 0 7 -7 4 -15 -7 -9 -11 -11 -24 -6 -30 12 -16 20 -56 11 -56 -4
0 -10 7 -14 15 -9 25 -23 17 -57 -35 -27 -42 -35 -48 -50 -39 -21 11 -25 -1
-7 -19 9 -9 7 -12 -10 -12 -13 0 -22 -6 -22 -15 0 -8 -9 -15 -20 -15 -11 0
-20 6 -20 13 0 8 -4 7 -10 -3 -8 -13 -10 -12 -10 3 0 9 -5 17 -11 17 -6 0 -9
-9 -6 -20 8 -29 -10 -14 -33 28 l-21 37 4 -33 c2 -20 0 -31 -7 -29 -6 2 -11
16 -11 30 1 34 -8 34 -25 2 l-14 -26 -24 28 -24 28 6 -45 7 -45 -22 38 c-26
42 -44 49 -35 13 9 -38 -7 -40 -36 -4 l-27 33 9 -33 c10 -36 12 -35 -37 -15
-7 3 -13 1 -13 -5 0 -6 5 -12 12 -14 8 -3 4 -12 -10 -26 -18 -18 -25 -20 -36
-10 -12 11 -12 13 0 16 18 4 18 42 0 42 -8 0 -16 -6 -19 -12 -2 -7 -8 -10 -12
-6 -5 5 0 17 10 28 21 23 9 27 -21 6 -18 -13 -20 -12 -21 5 -1 11 2 17 6 15 5
-3 13 6 19 19 11 24 11 25 -22 21 -19 -2 -45 -10 -58 -17 -12 -7 -42 -12 -65
-12 -39 1 -43 -1 -43 -24 l0 -25 -18 22 c-17 21 -52 20 -52 -1 0 -5 -4 -9 -9
-9 -5 0 -7 8 -4 18 4 15 -1 18 -27 16 -31 -2 -31 -2 -14 17 17 19 17 19 0 13
-14 -5 -16 -2 -10 20 4 18 2 26 -6 26 -21 0 -40 33 -28 47 7 9 7 13 -2 13 -7
0 -10 7 -6 15 3 9 0 15 -10 15 -11 0 -13 6 -9 20 10 32 -4 82 -21 76 -17 -6
-16 24 1 36 5 4 2 10 -7 13 -9 4 -14 13 -11 21 3 8 -1 14 -10 14 -11 0 -14 11
-12 47 1 26 7 49 13 51 7 2 12 10 12 17 0 8 8 19 18 24 23 14 6 14 -19 1 -14
-8 -25 -7 -40 4 l-21 14 23 4 c16 2 24 10 24 23 0 24 35 66 48 58 5 -3 6 4 2
16 -3 11 -3 21 2 21 11 0 34 -51 27 -61 -3 -5 2 -9 10 -9 8 0 20 9 26 20 11
21 40 28 40 10 0 -5 9 -10 19 -10 16 0 19 -6 17 -35 -4 -41 25 -73 70 -79 16
-3 41 -9 56 -15 32 -12 50 4 41 37 -4 17 -2 21 10 16 9 -3 14 -13 10 -22 -4
-15 -3 -15 6 -2 6 8 11 23 11 33 0 14 9 17 48 17 54 0 67 -7 51 -27 -9 -10 -8
-13 5 -13 9 0 16 7 16 16 0 8 4 12 10 9 13 -8 80 5 80 16 0 5 -12 6 -26 3 -19
-5 -25 -4 -20 5 10 16 41 14 56 -3 9 -11 18 -13 37 -5 15 5 33 7 41 4 9 -3 19
0 23 7 4 7 11 9 15 5 4 -3 1 -13 -6 -22 -13 -16 -12 -17 23 -18 26 -1 41 -18
24 -29 -6 -4 -8 -10 -5 -14 9 -8 125 47 157 75 13 12 33 21 43 21 16 0 17 2 6
13 -11 11 -34 24 -58 32 -3 1 -12 4 -20 8 -89 36 -190 56 -190 37 0 -6 6 -10
13 -9 6 1 23 1 36 0 40 -2 16 -13 -32 -14 -34 -2 -43 1 -39 12 4 11 -1 12 -21
7 -22 -5 -27 -3 -27 13 0 11 -5 23 -10 26 -15 9 -77 -14 -84 -31 -5 -13 -10
-12 -35 5 -16 12 -44 24 -63 27 -54 9 -61 13 -51 27 15 20 35 86 29 96 -3 5 1
14 9 21 19 16 19 25 -2 50 -16 18 -18 19 -37 2 -18 -16 -19 -16 -14 6 4 14 2
22 -7 22 -9 0 -12 11 -10 35 3 35 3 35 -38 35 -34 -1 -39 -3 -24 -11 14 -8 16
-18 11 -47 -4 -20 -11 -45 -15 -54 -10 -18 -63 -48 -86 -48 -8 0 -20 -15 -28
-34 -8 -19 -20 -38 -26 -42 -8 -5 -9 -3 -3 7 13 21 16 59 4 59 -5 0 -10 -4
-10 -10 0 -5 -7 -10 -15 -10 -9 0 -18 -7 -22 -16 -5 -13 -7 -13 -14 -2 -7 11
-10 11 -18 0 -4 -7 -14 -14 -22 -15 -8 -2 -20 -6 -27 -11 -20 -12 -78 -106
-86 -138 -3 -16 -11 -28 -17 -28 -7 0 -9 9 -6 21 4 15 0 23 -11 26 -12 3 -18
17 -20 49 -2 25 -11 67 -21 92 -10 26 -16 53 -14 60 6 17 -41 16 -56 -1 -6 -8
-9 -17 -6 -21 3 -3 1 -3 -5 1 -15 13 -30 97 -19 107 6 6 9 4 9 -6 0 -9 5 -20
11 -23 19 -12 22 3 5 27 -9 12 -16 30 -16 40 0 10 -7 18 -15 18 -12 0 -13 4
-6 18 6 11 6 24 0 33 -8 12 -10 12 -20 -1 -8 -12 -9 -10 -4 9 5 14 3 21 -3 17
-13 -8 -22 45 -11 66 5 9 8 29 8 45 -2 27 -2 27 -6 3 -3 -14 -8 -29 -13 -34
-12 -13 -4 70 14 134 8 31 11 56 5 58 -11 4 -12 23 -1 19 4 -1 20 8 36 21 16
12 24 22 17 22 -21 0 -11 21 25 55 l36 34 -39 -5 c-21 -3 -51 -10 -67 -15 -16
-5 -30 -8 -31 -7 0 2 -10 22 -20 46 -15 36 -16 45 -5 52 7 4 20 6 27 3 9 -4
13 0 12 8 -1 8 3 34 11 59 7 25 14 54 15 65 1 11 8 19 16 17 8 -2 11 0 7 4
-14 13 32 64 58 64 20 0 23 4 19 23 -5 19 2 25 47 46 29 13 59 23 65 22 7 -1
10 4 8 12 -6 13 52 47 80 47 8 0 15 6 15 14 0 10 13 13 51 11 35 -2 49 1 46 9
-3 8 4 12 17 12 15 -1 20 4 18 18 -2 13 1 17 11 13 10 -4 13 1 11 19 -1 13 2
24 7 24 5 0 9 7 9 15 0 13 -12 15 -71 11 -42 -3 -75 -10 -80 -17 -5 -9 -18 -7
-53 9 -68 33 -96 16 -150 -88 -11 -22 -26 -36 -37 -36 -11 0 -19 4 -19 9 0 4
-5 5 -11 1 -7 -4 -7 1 1 16 6 12 9 29 5 38 -6 15 -8 15 -22 -3 -12 -16 -14
-16 -10 -3 3 10 2 20 -3 23 -4 3 -11 24 -15 48 -4 23 -13 45 -19 50 -8 5 -7
10 3 16 7 5 10 14 6 20 -4 7 -1 18 5 26 7 8 9 15 4 15 -5 0 -3 4 5 9 8 5 16
17 18 25 2 9 4 23 6 32 2 9 11 20 19 25 9 5 19 21 23 36 3 15 14 33 23 40 16
12 16 12 0 13 -15 0 -14 3 5 23 12 13 25 22 29 20 3 -2 11 11 17 27 5 17 16
30 23 30 8 0 19 14 25 31 7 17 16 28 22 25 5 -3 12 7 16 24 4 16 13 30 21 30
8 0 20 11 26 25 12 26 28 34 28 13 0 -7 10 -1 23 14 22 27 111 78 135 78 7 0
15 7 19 16 3 9 13 14 24 11 11 -3 19 -1 19 5 0 5 5 6 11 2 6 -3 16 0 21 7 7
11 11 11 15 2 8 -20 19 -15 32 13 9 21 14 24 26 14 19 -16 34 -5 28 20 -4 14
0 20 11 20 9 0 16 -4 16 -8 0 -12 97 -33 117 -25 24 9 43 29 36 37 -4 3 1 6 9
6 12 0 14 -6 10 -22z m-62 -9 c0 -5 -7 -9 -15 -9 -8 0 -15 7 -15 15 0 9 6 12
15 9 8 -4 15 -10 15 -15z m165 -9 c-3 -5 -13 -6 -21 -3 -12 4 -13 8 -3 14 15
9 32 2 24 -11z m-535 -756 c0 -8 -4 -12 -10 -9 -5 3 -10 10 -10 16 0 5 5 9 10
9 6 0 10 -7 10 -16z m1237 -6 c-3 -8 -6 -5 -6 6 -1 11 2 17 5 13 3 -3 4 -12 1
-19z m-30 -3 c0 -8 -4 -15 -8 -15 -4 0 -9 7 -13 15 -3 9 0 15 8 15 7 0 13 -7
13 -15z m87 -1 c3 -8 2 -12 -4 -9 -6 3 -10 10 -10 16 0 14 7 11 14 -7z m-524
-4 c0 -5 -4 -10 -10 -10 -5 0 -10 5 -10 10 0 6 5 10 10 10 6 0 10 -4 10 -10z
m318 -155 c-3 -3 -9 2 -12 12 -6 14 -5 15 5 6 7 -7 10 -15 7 -18z m578 -447
c-17 -33 -34 -59 -50 -77 -14 -15 -15 -21 -4 -28 7 -4 14 -19 14 -33 1 -14 8
-72 16 -129 8 -57 14 -114 12 -125 -14 -96 -14 -100 -5 -81 4 11 7 23 4 28 -2
4 1 7 6 7 14 0 14 192 0 245 -6 22 -11 49 -12 60 -1 11 -5 22 -9 25 -4 3 0 22
9 43 19 40 68 61 84 36 18 -29 30 -91 30 -166 0 -66 -6 -96 -41 -198 -55 -160
-70 -195 -87 -195 -7 0 -13 5 -13 10 0 6 -7 10 -15 10 -14 0 -14 -3 1 -24 14
-23 14 -28 -4 -70 -27 -60 -59 -80 -118 -73 -28 3 -54 13 -67 25 -19 19 -19
26 -10 109 16 139 56 314 70 308 7 -2 13 0 13 4 0 5 -5 11 -11 13 -8 3 -6 19
4 55 14 47 14 51 0 46 -28 -11 -11 77 26 127 17 23 31 40 31 35 0 -4 7 -1 16
6 22 18 96 37 108 28 5 -4 6 -14 2 -21z m-2342 -32 c9 -19 20 -36 25 -38 4 -2
11 -32 14 -68 6 -63 6 -64 -11 -41 -9 13 -40 49 -68 80 -60 66 -76 101 -45
101 11 0 23 5 26 10 10 17 41 -6 59 -44z m-101 -33 c24 -36 26 -44 22 -133 -5
-115 8 -217 35 -272 11 -22 17 -45 14 -49 -3 -5 0 -9 5 -9 19 0 12 -17 -9 -23
-26 -7 -29 -1 -80 153 -51 150 -67 283 -44 358 7 23 31 12 57 -25z m84 -90 c4
-10 16 -27 26 -38 47 -49 50 -61 32 -110 -10 -25 -16 -48 -13 -51 3 -3 11 9
17 27 6 18 13 30 15 28 7 -8 37 -133 51 -218 8 -47 17 -103 21 -123 11 -63
-34 -90 -82 -50 -16 14 -21 27 -19 58 4 50 -5 95 -16 88 -5 -3 -14 8 -20 23
-7 15 -18 43 -26 61 -21 48 -26 118 -18 226 6 91 17 117 32 79z m258 -432 c10
-32 32 -46 50 -31 13 11 15 8 15 -18 0 -17 4 -42 9 -55 6 -14 6 -38 2 -53 l-7
-28 -17 33 c-9 19 -17 41 -17 49 0 12 -3 12 -15 2 -9 -8 -15 -8 -15 -2 0 6 -3
18 -6 26 -5 12 -2 15 10 10 9 -3 16 -2 16 4 0 15 -28 34 -40 27 -5 -3 -10 1
-10 9 0 9 -5 16 -10 16 -12 0 10 29 22 30 4 0 9 -9 13 -19z m545 -11 c0 -5 -5
-10 -11 -10 -14 0 -39 -26 -40 -42 0 -9 -2 -10 -6 -1 -6 15 27 62 45 63 6 0
12 -4 12 -10z m-777 -30 c3 -11 3 -20 1 -20 -2 0 -8 9 -14 20 -6 11 -7 20 -2
20 6 0 12 -9 15 -20z m690 -41 c-6 -6 -9 -19 -5 -27 5 -14 4 -14 -9 -2 -14 12
-14 16 0 30 9 9 18 15 20 13 3 -2 0 -8 -6 -14z m62 11 c3 -5 1 -10 -4 -10 -6
0 -11 5 -11 10 0 6 2 10 4 10 3 0 8 -4 11 -10z m-231 -35 c-4 -8 -8 -15 -10
-15 -2 0 -4 7 -4 15 0 8 4 15 10 15 5 0 7 -7 4 -15z m307 -17 c18 12 20 11 17
-5 -2 -10 -11 -17 -21 -15 -9 2 -17 -2 -17 -7 0 -6 -8 -10 -17 -9 -10 1 -44
-10 -76 -25 -60 -29 -93 -29 -99 1 -4 16 26 52 44 52 4 0 9 -8 9 -17 1 -16 2
-16 6 0 3 13 11 17 25 14 11 -3 27 0 34 8 11 11 20 11 44 2 24 -9 35 -9 51 1z
m1086 -30 c-3 -8 -6 -5 -6 6 -1 11 2 17 5 13 3 -3 4 -12 1 -19z m-1693 -3 c-4
-8 -8 -15 -10 -15 -2 0 -4 7 -4 15 0 8 4 15 10 15 5 0 7 -7 4 -15z m376 -29
c0 -15 -18 -31 -26 -23 -7 7 7 37 17 37 5 0 9 -6 9 -14z m718 -97 c-17 -10
-78 -7 -78 3 0 9 39 14 69 9 18 -3 20 -6 9 -12z m-498 1 c0 -5 -4 -10 -10 -10
-5 0 -10 5 -10 10 0 6 5 10 10 10 6 0 10 -4 10 -10z m187 4 c-3 -3 -12 -4 -19
-1 -8 3 -5 6 6 6 11 1 17 -2 13 -5z m880 -16 c-3 -8 -6 -5 -6 6 -1 11 2 17 5
13 3 -3 4 -12 1 -19z m-237 -258 c0 -5 -2 -10 -4 -10 -3 0 -8 5 -11 10 -3 6
-1 10 4 10 6 0 11 -4 11 -10z m360 -60 c-8 -5 -17 -7 -19 -4 -3 3 1 9 9 14 8
5 17 7 19 4 3 -3 -1 -9 -9 -14z m5 -40 c3 -5 1 -10 -6 -10 -8 0 -8 -4 -1 -12
6 -8 7 -35 2 -68 -4 -30 -5 -59 -3 -63 3 -4 -3 -19 -11 -32 -9 -14 -12 -25 -7
-25 14 0 21 -42 10 -56 -7 -8 -7 -14 0 -18 6 -4 7 -26 4 -51 -3 -28 -1 -45 5
-45 19 0 19 -35 -1 -63 -18 -26 -18 -27 0 -35 14 -5 18 -19 20 -55 l1 -48 -31
6 c-24 5 -28 4 -17 -4 13 -9 12 -11 -4 -11 -21 0 -56 -27 -56 -42 0 -5 -13
-23 -28 -39 -27 -29 -33 -31 -171 -45 -139 -13 -295 -38 -436 -69 -38 -8 -86
-15 -106 -15 -47 0 -99 -18 -99 -35 0 -17 -48 -48 -66 -41 -8 3 -14 12 -14 21
0 17 -10 18 -64 5 -31 -7 -42 -5 -55 7 -14 15 -13 16 14 9 l30 -8 -23 20 c-12
11 -21 26 -20 33 2 8 -5 13 -14 13 -13 -1 -18 5 -18 22 0 15 -6 24 -16 24 -14
0 -14 -3 -4 -15 10 -13 9 -15 -9 -15 -14 0 -21 6 -21 20 0 11 -4 20 -9 20 -5
0 -11 8 -13 18 -4 15 -1 18 17 14 17 -3 25 2 30 17 3 11 4 25 1 30 -9 14 31
20 44 7 9 -8 14 -8 17 1 4 10 9 10 26 1 23 -12 39 -12 152 1 43 5 75 4 83 -2
6 -5 12 -6 13 -1 0 5 4 0 9 -11 7 -16 9 -16 9 -4 1 18 31 35 31 19 0 -14 34
-12 48 2 9 9 12 9 12 0 0 -7 9 -12 20 -12 11 0 20 3 20 8 0 4 13 13 30 20 16
7 32 21 35 31 6 20 105 86 105 70 0 -5 11 -2 24 8 13 10 22 21 19 26 -2 4 5 7
17 7 11 0 23 7 26 15 4 8 11 15 18 15 6 0 54 42 106 93 52 51 107 100 123 110
15 10 27 22 27 27 0 6 18 29 40 51 22 23 40 50 40 61 0 10 11 30 25 44 14 14
25 31 25 39 0 21 34 32 45 15z m-515 -131 c0 -5 -7 -9 -15 -9 -9 0 -12 6 -9
15 6 15 24 11 24 -6z m-33 -41 c-3 -8 -6 -5 -6 6 -1 11 2 17 5 13 3 -3 4 -12
1 -19z m-687 -35 c-11 -17 -11 -17 -6 0 3 10 6 24 7 30 0 9 2 9 5 0 3 -7 0
-20 -6 -30z m625 -33 c3 -5 2 -10 -4 -10 -5 0 -13 5 -16 10 -3 6 -2 10 4 10 5
0 13 -4 16 -10z m-363 -25 c7 -33 -8 -42 -23 -14 -9 17 -8 23 2 30 8 5 15 9
15 9 1 0 4 -11 6 -25z m-2063 -319 c27 -25 44 -88 36 -136 -9 -51 -66 -116
-115 -131 -56 -17 -125 -4 -150 28 -38 49 -24 76 114 223 38 40 81 46 115 16z
m1635 -121 c3 -8 1 -15 -4 -15 -6 0 -10 7 -10 15 0 8 2 15 4 15 2 0 6 -7 10
-15z m2103 -57 c-40 -57 -47 -63 -56 -49 -13 20 -2 49 27 72 33 25 52 10 29
-23z m-2064 -5 c-7 -2 -21 -2 -30 0 -10 3 -4 5 12 5 17 0 24 -2 18 -5z m177
-23 c0 -5 10 -12 21 -15 29 -9 6 -25 -37 -25 -40 0 -46 7 -28 36 14 21 44 24
44 4z m-176 -16 c18 -18 21 -34 6 -34 -5 0 -10 5 -10 10 0 6 -10 10 -22 10
-17 0 -20 3 -9 9 11 7 10 10 -5 14 -17 4 -16 5 3 6 12 0 29 -6 37 -15z m506
-18 c0 -2 -7 -7 -16 -10 -8 -3 -12 -2 -9 4 6 10 25 14 25 6z m-523 -48 c-3 -7
-5 -2 -5 12 0 14 2 19 5 13 2 -7 2 -19 0 -25z m110 26 c-3 -3 -12 -4 -19 -1
-8 3 -5 6 6 6 11 1 17 -2 13 -5z m303 -75 c0 -32 -3 -40 -15 -35 -10 4 -15 -1
-15 -16 0 -14 -4 -18 -9 -12 -15 15 -1 92 18 97 9 3 17 5 19 6 1 0 2 -17 2
-40z m80 -27 c0 -15 -2 -15 -10 -2 -13 20 -13 33 0 25 6 -3 10 -14 10 -23z
m-26 -18 c18 -7 23 -98 6 -109 -6 -4 -10 15 -10 49 0 34 -5 56 -12 59 -7 3
-10 6 -6 6 3 1 13 -2 22 -5z m-23 -67 c9 -16 8 -17 -9 -8 -11 6 -23 7 -27 3
-5 -4 -5 1 -2 11 4 10 7 24 7 30 0 12 10 0 31 -36z m-61 -17 c0 -27 -4 -50
-10 -50 -11 0 -14 83 -3 93 12 12 13 8 13 -43z m100 -66 c0 -8 -5 -12 -10 -9
-6 4 -8 11 -5 16 9 14 15 11 15 -7z m78 -109 c-3 -3 -9 2 -12 12 -6 14 -5 15
5 6 7 -7 10 -15 7 -18z m-78 -10 c0 -8 -7 -15 -16 -15 -14 0 -14 3 -4 15 7 8
14 15 16 15 2 0 4 -7 4 -15z m70 -32 c0 -22 -2 -25 -10 -13 -13 20 -13 40 0
40 6 0 10 -12 10 -27z m-150 -5 c0 -6 8 -20 18 -31 16 -19 16 -20 0 -14 -14 5
-18 1 -18 -17 0 -20 -28 -90 -31 -76 0 3 -2 38 -4 78 -2 65 -1 72 16 72 11 0
19 -5 19 -12z m8 -233 c-3 -13 -1 -22 4 -19 5 3 18 -6 29 -20 11 -14 40 -40
65 -57 39 -27 59 -59 35 -59 -4 0 -39 28 -77 63 -43 38 -62 51 -51 34 19 -29
16 -47 -8 -47 -18 0 -22 35 -11 88 10 44 22 60 14 17z m44 -117 c-17 -17 -15
-33 2 -18 12 9 21 7 45 -11 34 -25 36 -30 19 -47 -20 -20 -41 -13 -75 26 -29
34 -31 38 -16 50 22 16 41 16 25 0z"/>
<path d="M5645 5300 c3 -5 10 -10 16 -10 5 0 9 5 9 10 0 6 -7 10 -16 10 -8 0
-12 -4 -9 -10z"/>
<path d="M4935 4600 c-3 -5 -1 -10 4 -10 6 0 11 5 11 10 0 6 -2 10 -4 10 -3 0
-8 -4 -11 -10z"/>
<path d="M5970 4601 c0 -6 5 -13 10 -16 6 -3 10 1 10 9 0 9 -4 16 -10 16 -5 0
-10 -4 -10 -9z"/>
<path d="M5412 4578 c-7 -7 -12 -19 -12 -27 0 -11 4 -10 20 4 21 19 26 35 12
35 -4 0 -13 -5 -20 -12z"/>
<path d="M5360 4500 c0 -5 5 -10 11 -10 5 0 7 5 4 10 -3 6 -8 10 -11 10 -2 0
-4 -4 -4 -10z"/>
<path d="M5385 4370 c3 -5 10 -10 16 -10 5 0 9 5 9 10 0 6 -7 10 -16 10 -8 0
-12 -4 -9 -10z"/>
<path d="M5428 4343 c6 -2 12 -13 12 -24 0 -10 5 -19 10 -19 13 0 13 6 0 31
-6 10 -16 19 -23 18 -9 0 -9 -2 1 -6z"/>
<path d="M5160 4291 c0 -6 -10 -10 -23 -9 -22 2 -87 -30 -87 -43 0 -4 -9 -9
-20 -12 -12 -3 -20 -14 -20 -25 0 -11 -7 -27 -15 -36 -8 -8 -15 -19 -15 -25 0
-6 -6 -11 -12 -11 -7 0 -5 -5 5 -11 9 -5 17 -19 17 -29 0 -10 -8 -24 -17 -29
-14 -8 -9 -10 24 -11 34 0 46 5 63 27 17 23 28 27 58 24 20 -2 40 -7 43 -13 4
-7 13 -6 27 1 15 8 22 8 25 -2 3 -9 7 -9 17 0 7 6 19 9 26 6 8 -3 14 -1 14 5
0 6 -6 12 -12 15 -7 2 -9 8 -5 13 5 5 13 1 18 -9 9 -15 22 -16 126 -10 l115 6
-7 -34 c-8 -36 -47 -93 -74 -109 -14 -8 -14 -11 -1 -19 10 -7 17 -6 22 2 15
25 19 -3 4 -32 -9 -16 -16 -37 -16 -46 0 -8 -4 -15 -10 -15 -16 0 -12 -30 5
-36 22 -9 19 -23 -18 -68 -19 -23 -39 -51 -45 -63 -15 -27 -16 -83 -2 -83 6 0
10 14 10 30 0 37 35 78 76 89 16 4 34 18 40 30 7 12 17 28 23 34 6 6 11 19 11
29 0 10 5 18 10 18 6 0 10 5 10 11 0 5 14 24 30 42 28 29 30 37 25 77 -3 25
-6 60 -6 78 0 18 -4 30 -9 27 -12 -7 0 36 18 63 8 12 11 22 6 22 -4 0 -3 5 4
12 14 14 15 47 2 68 -7 12 -12 11 -30 -5 -18 -16 -23 -17 -30 -5 -6 8 -10 18
-10 22 0 3 -13 11 -30 17 -16 5 -30 15 -30 20 0 6 -4 11 -8 11 -7 0 -8 -33 -2
-50 1 -3 3 -9 4 -15 0 -5 7 -20 14 -32 11 -20 8 -53 -5 -53 -3 0 -25 18 -49
40 -24 22 -48 40 -54 40 -5 0 -9 3 -9 8 4 22 -3 34 -16 29 -8 -4 -17 -2 -20 3
-10 16 -35 12 -35 -5 0 -8 -7 -15 -15 -15 -8 0 -15 7 -15 15 0 8 -4 15 -10 15
-5 0 -10 -7 -10 -15 0 -10 -10 -15 -34 -15 -28 0 -35 4 -38 22 -3 22 -28 39
-28 19z m242 -110 c38 -34 32 -45 -24 -54 l-38 -6 0 45 c0 53 15 57 62 15z
m-244 -35 c-2 -10 -9 -11 -28 -4 l-25 9 25 19 c21 16 26 17 28 5 2 -8 2 -21 0
-29z m112 35 c0 -6 -4 -13 -10 -16 -5 -3 -10 1 -10 9 0 9 5 16 10 16 6 0 10
-4 10 -9z"/>
<path d="M5220 4279 c0 -5 5 -7 10 -4 6 3 10 8 10 11 0 2 -4 4 -10 4 -5 0 -10
-5 -10 -11z"/>
<path d="M5388 4283 c7 -3 16 -2 19 1 4 3 -2 6 -13 5 -11 0 -14 -3 -6 -6z"/>
<path d="M6254 4268 c18 -28 12 -42 -13 -29 -20 11 -108 20 -116 13 -11 -11
-49 -12 -55 -2 -3 6 -31 -13 -63 -43 -31 -30 -59 -52 -62 -49 -7 7 -35 -18
-35 -32 0 -7 25 -11 69 -12 37 -1 77 -6 87 -12 27 -14 114 -24 114 -13 0 5 -6
12 -12 15 -7 3 -2 3 12 0 14 -4 26 -10 28 -15 2 -4 15 -6 30 -4 77 12 143 15
137 6 -7 -13 32 -34 46 -25 6 3 24 -3 40 -15 23 -17 29 -19 29 -6 0 8 -5 15
-10 15 -6 0 -16 12 -23 28 -6 15 -17 32 -23 37 -7 6 -15 26 -18 46 -9 53 -65
97 -144 114 l-34 7 16 -24z m90 -43 c9 -25 -9 -24 -20 0 -9 18 -9 22 2 18 7
-2 15 -11 18 -18z m-255 -98 c-9 -11 -88 11 -106 29 -12 12 -12 14 4 14 10 0
36 12 58 25 l40 25 5 -43 c3 -23 3 -46 -1 -50z m95 42 c-3 -5 -10 -7 -15 -3
-5 3 -7 10 -3 15 3 5 10 7 15 3 5 -3 7 -10 3 -15z m117 -33 c-26 -11 -35 -4
-26 24 7 21 7 21 27 3 19 -17 19 -18 -1 -27z"/>
<path d="M6195 4270 c4 -6 11 -8 16 -5 14 9 11 15 -7 15 -8 0 -12 -5 -9 -10z"/>
<path d="M5792 4218 c-18 -18 -19 -17 40 -145 11 -23 17 -47 14 -52 -4 -5 -3
-11 1 -13 5 -1 17 -19 27 -38 l19 -35 -24 22 c-17 16 -29 19 -39 13 -8 -5 -10
-10 -5 -11 6 0 -3 -6 -18 -13 l-29 -13 31 -13 c24 -9 31 -18 29 -34 -2 -17 1
-20 22 -18 21 4 22 2 11 -12 -10 -11 -10 -16 -2 -16 7 0 10 -4 6 -10 -3 -5 -2
-17 4 -27 5 -10 14 -31 20 -46 9 -22 16 -27 30 -22 14 4 23 0 30 -14 6 -11 18
-27 27 -35 16 -16 25 -74 17 -106 -5 -19 -70 -54 -120 -65 -30 -6 -39 -19 -34
-47 0 -5 -3 -8 -8 -8 -5 0 -8 -11 -8 -25 0 -14 4 -25 10 -25 5 0 2 -9 -8 -20
-29 -32 -39 -10 -25 50 7 28 9 54 6 57 -3 4 -6 -3 -6 -14 0 -14 -8 -23 -25
-27 -14 -4 -23 -11 -20 -16 3 -6 -1 -7 -11 -3 -14 5 -15 1 -9 -26 5 -23 3 -32
-9 -37 -9 -3 -13 -10 -10 -15 3 -5 -3 -9 -12 -9 -13 0 -9 -7 14 -23 17 -13 30
-26 27 -28 -2 -3 4 -5 15 -6 10 -1 21 5 24 13 9 24 36 16 36 -11 0 -20 5 -25
26 -25 14 0 22 4 19 10 -3 6 1 7 9 4 11 -4 16 0 16 10 0 9 6 16 14 16 8 0 14
-11 14 -26 0 -29 21 -49 37 -33 14 14 12 92 -3 97 -6 2 -12 12 -12 23 0 10 -4
19 -8 19 -4 0 -13 13 -19 29 -9 24 -8 29 3 24 8 -3 14 0 14 6 0 6 -11 11 -25
11 -22 0 -25 -3 -19 -25 5 -20 3 -24 -10 -19 -17 7 -23 64 -6 64 6 0 10 7 10
15 0 8 9 15 20 15 33 0 87 31 99 57 19 41 7 151 -18 173 -11 10 -47 65 -54 83
-10 26 1 41 19 26 25 -21 28 0 6 45 -12 24 -22 55 -22 70 0 14 -5 26 -11 26
-6 0 -9 9 -6 20 3 11 2 18 -2 15 -10 -6 -33 44 -26 56 4 5 2 9 -2 9 -15 0 -34
41 -28 61 4 10 13 19 22 19 10 0 13 6 9 16 -3 9 -6 20 -6 26 0 6 -12 8 -27 5
-15 -3 -35 -1 -44 3 -10 6 -20 5 -27 -2z m88 -838 c0 -5 -2 -10 -4 -10 -3 0
-8 5 -11 10 -3 6 -1 10 4 10 6 0 11 -4 11 -10z m-93 -25 c7 -20 -2 -29 -21
-22 -9 4 -13 13 -10 22 8 19 23 19 31 0z"/>
<path d="M6520 3951 c0 -17 30 -25 43 -12 8 8 8 11 0 11 -6 0 -18 3 -27 6 -9
3 -16 1 -16 -5z"/>
<path d="M6540 3916 c0 -20 22 -56 35 -56 20 0 19 12 -4 38 -17 20 -31 28 -31
18z"/>
<path d="M5475 3620 c-4 -6 5 -10 19 -10 17 0 26 -6 26 -15 0 -13 7 -15 34
-10 24 5 36 3 42 -8 8 -12 45 -37 57 -37 2 0 -14 20 -37 45 -38 41 -47 45 -89
45 -25 0 -49 -4 -52 -10z"/>
<path d="M5772 3596 c-20 -19 -34 -38 -30 -42 5 -4 16 0 25 9 10 8 38 18 63
20 24 2 46 9 48 15 2 7 17 9 35 6 l32 -5 -34 15 c-55 26 -96 21 -139 -18z"/>
<path d="M5438 3603 c7 -3 16 -2 19 1 4 3 -2 6 -13 5 -11 0 -14 -3 -6 -6z"/>
<path d="M5370 3592 c0 -12 30 -52 40 -52 5 0 1 13 -8 30 -16 28 -32 39 -32
22z"/>
<path d="M5610 3409 c0 -5 5 -7 10 -4 6 3 10 8 10 11 0 2 -4 4 -10 4 -5 0 -10
-5 -10 -11z"/>
<path d="M5987 3352 c-6 -11 -1 -85 7 -109 10 -32 26 -29 26 5 0 15 4 34 9 41
8 12 11 9 16 -12 4 -15 12 -27 17 -27 15 0 37 -31 38 -52 0 -10 14 -21 36 -28
24 -8 34 -17 30 -26 -4 -9 2 -14 15 -14 17 0 20 5 16 23 -5 20 -5 20 7 5 7
-10 16 -18 19 -18 3 0 7 8 10 18 7 30 26 -32 29 -93 2 -44 6 -55 19 -55 10 0
25 7 33 16 17 16 22 29 8 20 -4 -2 -6 11 -4 30 4 34 22 59 22 30 0 -9 5 -16
10 -16 15 0 12 7 -12 40 -11 16 -25 27 -30 24 -4 -3 -8 0 -8 5 0 6 5 11 10 11
6 0 10 7 10 15 0 9 -6 12 -15 9 -11 -5 -17 3 -21 25 -4 17 -10 31 -14 31 -5 0
-18 15 -30 33 -14 22 -19 25 -15 10 5 -18 2 -20 -14 -16 -12 3 -18 9 -15 14 3
5 0 9 -5 9 -6 0 -11 -9 -11 -21 0 -14 5 -19 14 -16 10 4 12 0 9 -14 -3 -10 -9
-19 -13 -19 -9 0 -30 46 -30 66 0 20 -40 34 -63 22 -14 -7 -15 -13 -7 -31 10
-20 9 -19 -11 3 -12 14 -30 24 -40 22 -13 -2 -19 3 -19 16 0 20 -26 38 -33 24z
m143 -73 c0 -6 -4 -7 -10 -4 -5 3 -10 11 -10 16 0 6 5 7 10 4 6 -3 10 -11 10
-16z"/>
<path d="M6525 3310 c-3 -5 -1 -10 4 -10 6 0 11 5 11 10 0 6 -2 10 -4 10 -3 0
-8 -4 -11 -10z"/>
<path d="M5800 3230 c0 -5 5 -10 10 -10 6 0 10 5 10 10 0 6 -4 10 -10 10 -5 0
-10 -4 -10 -10z"/>
<path d="M5686 3043 c5 -5 12 -12 16 -18 4 -6 8 -2 8 8 0 9 -7 17 -17 17 -9 0
-12 -3 -7 -7z"/>
<path d="M5745 3040 c-3 -5 -1 -10 4 -10 6 0 11 5 11 10 0 6 -2 10 -4 10 -3 0
-8 -4 -11 -10z"/>
<path d="M6310 2991 c0 -5 5 -13 10 -16 6 -3 10 -2 10 4 0 5 -4 13 -10 16 -5
3 -10 2 -10 -4z"/>
<path d="M5613 2953 c9 -2 23 -2 30 0 6 3 -1 5 -18 5 -16 0 -22 -2 -12 -5z"/>
<path d="M5695 2882 c-11 -2 -24 -8 -29 -13 -5 -4 -18 -3 -29 3 -16 8 -19 8
-14 -5 3 -9 -1 -18 -9 -21 -8 -3 -14 -10 -14 -16 0 -7 6 -7 21 0 31 17 35 4
10 -30 -12 -17 -17 -30 -12 -30 5 0 17 10 25 22 9 12 16 20 17 18 8 -44 5 -89
-8 -94 -8 -3 -12 -10 -8 -16 6 -10 30 7 71 50 25 26 31 50 13 50 -8 0 -9 13
-5 39 7 43 2 50 -29 43z"/>
<path d="M5630 2749 c0 -5 5 -7 10 -4 6 3 10 8 10 11 0 2 -4 4 -10 4 -5 0 -10
-5 -10 -11z"/>
<path d="M5660 2657 c0 -15 4 -27 9 -27 14 0 20 -37 8 -49 -6 -6 -8 -11 -4
-11 4 0 2 -10 -4 -22 -12 -23 -12 -23 10 -4 11 11 21 25 21 33 0 7 5 13 12 13
6 0 4 7 -5 18 -10 10 -17 23 -17 28 0 5 -7 18 -15 28 -14 19 -15 19 -15 -7z"/>
<path d="M5766 2625 c4 -8 8 -15 10 -15 2 0 4 7 4 15 0 8 -4 15 -10 15 -5 0
-7 -7 -4 -15z"/>
<path d="M6808 3453 c-22 -26 -1 -33 30 -9 l33 24 -26 -2 c-15 0 -31 -6 -37
-13z"/>
<path d="M4690 3523 c0 -12 4 -24 9 -27 4 -3 6 -17 3 -31 -3 -18 0 -25 11 -25
12 0 13 7 7 33 -4 19 -12 42 -18 53 -11 18 -11 18 -12 -3z"/>
<path d="M5483 1903 c9 -2 23 -2 30 0 6 3 -1 5 -18 5 -16 0 -22 -2 -12 -5z"/>
<path d="M9345 9573 c13 -22 29 -32 69 -41 63 -15 119 -16 111 -2 -3 6 -23 10
-43 10 -44 0 -58 8 -63 35 -3 16 -13 21 -48 23 l-43 3 17 -28z"/>
<path d="M9491 9441 c-9 -6 -10 -11 -2 -15 15 -10 14 -36 -2 -36 -7 0 -21 -10
-31 -21 -15 -18 -16 -23 -5 -30 18 -11 54 -7 54 6 0 21 17 35 41 35 18 0 24 5
24 23 0 40 -42 61 -79 38z"/>
</g>
</svg>
