<?xml version="1.0" standalone="no"?>
<!DOCTYPE svg PUBLIC "-//W3C//DTD SVG 20010904//EN"
 "http://www.w3.org/TR/2001/REC-SVG-20010904/DTD/svg10.dtd">
<svg version="1.0" xmlns="http://www.w3.org/2000/svg"
 width="956.000000pt" height="960.000000pt" viewBox="0 0 956.000000 960.000000"
 preserveAspectRatio="xMidYMid meet">

<g transform="translate(0.000000,960.000000) scale(0.100000,-0.100000)"
fill="#000000" stroke="none">
<path d="M106 9438 c-3 -90 -8 -275 -11 -413 -3 -137 -8 -329 -10 -425 -3 -96
-12 -515 -21 -930 -8 -415 -19 -876 -23 -1025 -5 -162 -4 -277 1 -288 7 -13
18 -17 41 -15 l32 3 2 115 c1 63 7 286 13 494 8 255 8 382 1 389 -6 6 -7 17
-2 26 8 15 24 443 36 1001 11 505 25 1019 30 1123 l5 107 -44 0 -44 0 -6 -162z"/>
<path d="M407 9586 c-7 -19 38 -60 57 -53 9 4 16 18 16 31 0 22 5 25 43 29 26
2 13 4 -34 5 -58 2 -78 -1 -82 -12z"/>
<path d="M420 9520 c8 -5 22 -9 30 -9 10 0 8 3 -5 9 -27 12 -43 12 -25 0z"/>
<path d="M6302 9398 c-7 -48 -8 -86 -3 -91 5 -5 12 13 15 45 4 29 9 70 12 91
3 20 2 37 -4 37 -5 0 -14 -37 -20 -82z"/>
<path d="M6115 9413 c-22 -54 -85 -250 -85 -264 0 -9 -7 -30 -15 -45 -8 -16
-15 -41 -15 -56 0 -15 -4 -30 -10 -33 -5 -3 -10 -15 -10 -25 0 -18 -7 -19 -81
-17 -44 1 -83 -1 -86 -6 -3 -5 -16 -6 -28 -3 -13 3 -27 2 -30 -4 -4 -6 6 -10
23 -10 15 0 37 -8 48 -18 11 -10 25 -17 33 -14 10 3 11 -2 6 -18 -6 -19 -4
-22 9 -17 10 4 15 3 12 -2 -3 -4 4 -17 15 -27 11 -9 19 -25 18 -33 -3 -39 3
-44 17 -13 10 18 24 32 35 32 21 0 38 22 21 28 -9 3 -9 7 1 17 29 33 35 43 31
48 -3 3 0 22 6 44 10 33 45 169 54 213 2 8 6 22 9 30 11 29 40 201 35 206 -3
3 -9 -3 -13 -13z"/>
<path d="M6286 9215 c-4 -22 -9 -51 -12 -65 -3 -14 -8 -50 -10 -80 -3 -30 -9
-79 -13 -107 -6 -42 -5 -53 6 -53 7 0 13 4 13 9 0 6 12 16 27 23 15 7 28 20
29 28 0 9 -1 10 -3 3 -7 -20 -23 -15 -23 7 0 11 -5 20 -12 20 -6 0 -3 9 7 20
11 13 14 20 6 20 -15 0 -12 151 3 162 6 4 6 15 -1 30 -10 22 -11 21 -17 -17z"/>
<path d="M6040 8955 c-8 -9 -8 -15 -2 -15 12 0 26 19 19 26 -2 2 -10 -2 -17
-11z"/>
<path d="M3780 8693 c-14 -3 -29 -9 -35 -15 -7 -7 -2 -9 15 -4 14 3 48 6 75 7
37 0 45 3 30 9 -21 9 -45 10 -85 3z"/>
<path d="M8631 8691 c-23 -15 3 -19 34 -5 29 13 29 13 5 13 -14 1 -31 -3 -39
-8z"/>
<path d="M8885 8690 c-3 -5 3 -10 15 -10 12 0 18 5 15 10 -3 6 -10 10 -15 10
-5 0 -12 -4 -15 -10z"/>
<path d="M3908 8663 c7 -3 16 -2 19 1 4 3 -2 6 -13 5 -11 0 -14 -3 -6 -6z"/>
<path d="M8980 8650 c0 -5 5 -10 10 -10 6 0 10 5 10 10 0 6 -4 10 -10 10 -5 0
-10 -4 -10 -10z"/>
<path d="M9267 8653 c-3 -3 1 -12 9 -20 8 -9 18 -13 21 -10 3 3 -1 13 -10 21
-8 8 -17 12 -20 9z"/>
<path d="M8898 8643 c7 -3 16 -2 19 1 4 3 -2 6 -13 5 -11 0 -14 -3 -6 -6z"/>
<path d="M3015 8622 c-60 -35 -93 -73 -100 -113 -4 -23 -13 -40 -21 -40 -8 -1
-26 -3 -41 -5 -16 -1 -66 -5 -113 -7 -48 -3 -86 -10 -88 -16 -5 -14 -32 -15
-32 -1 0 6 -8 10 -17 9 -11 0 -13 -3 -5 -6 24 -9 11 -20 -44 -38 -31 -10 -68
-15 -85 -11 -23 4 -36 -1 -63 -24 -18 -17 -38 -30 -43 -30 -21 0 -37 -57 -43
-152 0 -5 -21 -8 -46 -8 -80 0 -131 -19 -162 -59 -46 -59 -64 -121 -52 -178 7
-30 5 -41 -16 -68 -13 -17 -29 -46 -35 -63 -6 -17 -22 -38 -35 -47 -14 -9 -22
-21 -18 -27 4 -6 -1 -17 -10 -24 -10 -7 -20 -32 -23 -55 -4 -30 -15 -51 -35
-69 -21 -20 -25 -29 -17 -37 9 -9 5 -14 -15 -19 -16 -4 -28 -15 -32 -30 -6
-24 -63 -74 -85 -74 -8 0 -10 -13 -6 -40 4 -29 1 -40 -8 -40 -16 0 -40 -28
-40 -49 0 -9 -16 -23 -36 -33 -42 -20 -80 -68 -54 -68 9 0 14 -4 10 -10 -3 -5
-12 -7 -19 -4 -10 4 -17 -13 -27 -62 -10 -51 -26 -86 -62 -141 -27 -40 -45
-78 -41 -84 3 -6 1 -15 -6 -19 -7 -5 -14 -23 -15 -42 -2 -39 -22 -113 -40
-148 -19 -36 -57 -349 -55 -447 2 -99 -8 -170 -24 -175 -6 -3 -99 4 -206 13
-107 10 -220 18 -251 18 -56 1 -57 1 -72 -36 -8 -21 -39 -87 -67 -148 -97
-204 -93 -211 7 -15 63 123 71 135 98 139 38 4 481 -30 494 -39 7 -4 12 -97
13 -245 l3 -240 -85 1 c-71 2 -418 28 -1080 84 -174 15 -170 15 -170 -20 0
-19 5 -30 14 -30 19 0 363 -27 506 -40 63 -5 264 -21 445 -35 182 -14 340 -28
353 -31 20 -4 23 -10 21 -42 -3 -42 10 -146 18 -138 15 14 32 144 33 239 0 64
4 107 10 107 6 0 10 -10 10 -22 0 -13 4 -29 9 -37 7 -11 13 -10 32 8 12 11 30
21 40 21 20 0 33 27 16 33 -8 2 -6 9 6 22 10 9 16 23 14 30 -3 6 4 17 15 24
17 11 18 15 7 22 -12 7 -12 9 1 9 37 1 42 16 16 45 -32 34 -21 65 24 65 22 0
28 4 24 15 -8 20 13 45 37 45 23 0 24 -8 2 -32 -14 -16 -15 -18 0 -18 9 0 19
5 22 10 3 6 18 10 33 11 l27 1 -27 11 c-36 14 -36 35 0 48 44 17 65 19 79 8 9
-8 13 -8 13 0 0 6 16 11 38 11 35 -1 36 -1 17 -16 -11 -8 -28 -13 -37 -11 -9
3 -25 -1 -35 -8 -17 -12 -16 -14 9 -20 16 -4 35 -5 43 -1 21 8 19 1 -9 -27
-14 -14 -22 -28 -18 -31 3 -4 -1 -4 -10 -1 -8 3 -22 0 -30 -8 -18 -18 -59 -16
-75 3 -11 13 -12 12 -13 -9 0 -17 -4 -22 -16 -17 -8 3 -25 1 -36 -5 -19 -10
-20 -12 -5 -21 13 -7 17 -23 17 -68 0 -52 -3 -62 -31 -89 -27 -28 -31 -40 -40
-122 -5 -50 -12 -96 -16 -102 -4 -7 -8 -31 -9 -54 -1 -36 2 -43 18 -43 10 0
18 -4 18 -10 0 -10 -21 -14 -47 -11 -20 3 -15 -12 12 -41 14 -15 25 -33 25
-40 0 -21 59 -78 74 -72 15 6 46 -31 46 -54 0 -19 69 -87 98 -96 12 -4 22 -11
22 -16 0 -18 45 -19 61 -1 15 16 30 18 104 15 48 -2 91 -7 96 -10 21 -13 5
-22 -47 -27 -90 -9 -89 -25 3 -37 32 -4 49 -8 38 -9 -34 -2 5 -21 44 -21 77 0
371 71 371 90 0 4 13 10 29 13 37 8 66 36 52 50 -7 7 -18 7 -33 -1 -13 -6 -37
-11 -54 -10 -27 1 -30 4 -27 27 8 50 11 53 31 34 12 -12 15 -21 8 -26 -7 -5
-3 -7 9 -5 12 2 20 11 20 23 0 34 37 45 123 35 58 -6 82 -5 97 4 11 7 37 16
58 20 45 8 49 31 11 75 -31 38 -26 49 23 46 51 -4 71 -13 79 -37 3 -11 15 -29
26 -40 11 -11 17 -26 14 -35 -3 -8 -6 -23 -6 -34 0 -10 -7 -19 -15 -19 -20 0
-19 -19 1 -27 25 -9 64 18 81 56 8 20 22 51 30 69 8 19 21 32 32 32 21 0 31
19 31 56 0 13 4 24 9 24 8 0 3 37 -25 180 -9 47 -19 103 -21 124 -3 22 -14 53
-24 70 -22 35 -25 76 -7 94 7 7 8 12 2 12 -15 0 -35 47 -28 65 4 8 1 15 -4 15
-6 0 -16 26 -22 57 -15 70 -29 103 -46 103 -6 0 -17 12 -22 28 -6 15 -17 36
-25 47 -14 18 -16 17 -23 -30 l-7 -50 -13 37 c-20 57 -64 107 -101 114 -18 3
-30 10 -27 15 3 5 -12 9 -33 10 -21 1 -47 2 -58 3 -11 1 -37 3 -57 4 -26 1
-38 7 -38 17 0 10 -10 15 -30 15 -17 0 -42 7 -55 16 -13 9 -29 13 -34 10 -5
-4 -12 -2 -16 3 -3 5 2 14 11 19 15 9 15 11 -5 21 -17 9 -30 9 -56 1 -45 -15
-68 -2 -29 16 l29 12 -38 1 c-22 1 -40 7 -43 15 -8 22 -51 34 -144 41 -67 5
-93 3 -124 -10 -27 -12 -50 -14 -75 -9 -20 4 -40 6 -46 4 -5 -1 -34 -7 -64
-12 -59 -10 -164 -67 -225 -123 -53 -48 -56 -37 -5 16 44 46 37 69 -9 27 -15
-14 -35 -28 -44 -31 -10 -4 -18 -14 -18 -24 0 -20 -47 -114 -62 -124 -5 -3 -8
-10 -7 -15 1 -5 -3 -22 -9 -37 -7 -16 -12 -44 -12 -63 0 -19 -5 -34 -11 -34
-8 0 -10 18 -5 58 4 32 7 104 7 161 0 77 5 113 17 135 9 17 15 39 13 49 -1 10
2 24 7 30 5 7 12 37 16 67 9 72 37 192 47 204 5 6 9 26 9 46 0 19 6 44 14 55
7 11 14 43 14 71 2 57 23 159 41 192 6 11 11 29 11 38 0 35 132 271 170 304 3
3 17 21 30 40 63 93 194 228 290 299 41 30 100 81 130 113 34 36 64 58 77 58
13 0 32 14 48 34 32 42 50 50 70 30 8 -9 15 -11 15 -5 0 6 20 11 48 11 37 0
50 4 60 21 13 21 14 20 38 -12 26 -36 80 -64 90 -48 4 6 11 6 19 -1 16 -13 39
-4 29 12 -4 6 1 8 12 6 11 -2 18 -8 17 -14 -1 -10 262 -12 287 -2 27 11 184
26 218 21 31 -5 44 8 22 22 -16 10 -12 21 13 33 18 9 19 11 4 11 -10 1 -15 6
-12 11 8 12 45 13 45 1 0 -15 114 -93 134 -92 12 0 40 3 62 7 30 4 49 1 67
-11 21 -13 30 -14 47 -5 18 10 26 8 46 -11 22 -21 34 -23 132 -24 91 0 113 -3
143 -21 32 -19 40 -20 73 -9 31 11 39 11 51 -2 8 -8 15 -18 15 -22 0 -10 69
-31 102 -31 13 0 28 -4 34 -9 13 -13 121 -32 139 -25 8 4 15 11 16 18 1 6 2
19 3 28 2 28 20 25 34 -5 11 -23 19 -27 50 -26 20 2 42 5 47 9 6 4 19 10 29
14 16 5 17 4 6 -9 -16 -19 -6 -47 15 -39 8 4 22 1 30 -6 9 -8 38 -12 70 -11
50 1 55 0 55 -20 0 -19 4 -20 58 -16 76 7 122 16 149 29 16 8 30 8 45 1 15 -6
31 -6 50 1 32 12 46 3 28 -19 -8 -9 -29 -15 -56 -15 -23 0 -46 -4 -49 -10 -4
-6 5 -10 19 -10 14 0 26 -4 26 -9 0 -19 78 -29 90 -11 18 27 59 6 60 -31 0
-24 33 -49 63 -49 18 0 30 -8 39 -26 7 -15 29 -35 48 -45 42 -22 47 -26 85
-74 17 -21 37 -45 45 -55 17 -19 27 -35 69 -106 17 -28 40 -59 51 -69 11 -10
20 -22 20 -28 0 -5 18 -37 40 -70 22 -33 43 -71 46 -86 4 -14 13 -46 21 -71
27 -78 31 -108 19 -120 -8 -8 -8 -13 0 -18 20 -13 33 -127 30 -261 -2 -73 -8
-136 -13 -140 -5 -3 -9 -19 -10 -36 -1 -16 -6 -50 -12 -75 -12 -51 -14 -189
-5 -267 6 -45 9 -52 28 -50 18 2 22 -5 30 -63 6 -45 5 -79 -3 -111 -7 -25 -13
-57 -15 -70 -1 -14 -6 -30 -10 -37 -4 -7 -3 -19 3 -26 16 -19 24 -135 11 -151
-8 -9 -6 -14 5 -19 8 -3 15 -10 15 -17 0 -6 -6 -9 -14 -6 -15 6 -25 -86 -31
-282 -2 -53 -4 -100 -6 -106 -1 -5 1 -31 5 -57 7 -40 12 -48 30 -48 15 0 17
-3 8 -9 -32 -20 -41 -58 -30 -126 11 -66 20 -79 32 -48 5 11 1 22 -9 29 -15
11 -15 15 5 42 12 17 19 35 16 41 -4 6 0 11 8 11 11 0 16 -10 16 -32 0 -18 4
-39 9 -46 9 -14 42 81 60 173 5 28 17 67 26 88 15 36 18 38 53 33 20 -3 96 -8
167 -11 153 -8 165 -10 165 -36 0 -22 15 -25 24 -4 4 13 34 14 198 10 106 -3
211 -7 233 -10 22 -3 216 -16 430 -30 215 -14 458 -29 540 -35 83 -5 290 -19
460 -30 171 -11 450 -29 620 -40 171 -12 387 -25 480 -30 94 -5 205 -12 248
-16 l77 -6 0 30 c0 38 82 30 -800 82 -184 11 -472 29 -640 40 -168 11 -523 33
-790 50 -267 17 -701 45 -965 63 l-480 32 -2 120 c-2 66 2 152 7 190 5 39 12
99 14 135 3 36 7 88 10 115 8 82 9 338 2 365 -3 14 -2 48 2 77 6 35 5 56 -2
63 -14 14 -28 121 -30 232 -1 55 -7 92 -16 102 -7 9 -15 40 -18 69 -3 28 -11
58 -19 66 -9 8 -12 23 -8 38 3 14 0 32 -9 45 -8 11 -12 27 -9 34 3 8 0 20 -6
28 -9 10 -9 26 -1 61 8 38 8 51 -3 64 -8 9 -19 31 -27 49 -7 17 -16 32 -21 32
-10 0 -49 82 -49 103 0 8 -8 18 -17 21 -12 5 -14 9 -5 18 18 18 19 16 -36 84
-10 11 -7 118 3 134 3 6 0 10 -7 10 -21 0 -101 89 -95 104 3 8 0 20 -8 26 -8
6 -12 28 -11 53 1 46 -32 122 -65 145 -14 10 -19 25 -19 61 0 112 -86 211
-184 211 -12 0 -35 14 -53 30 -18 17 -41 30 -51 30 -27 0 -45 23 -30 38 8 8
-1 14 -33 22 -24 6 -53 14 -64 17 -28 8 -75 45 -75 58 0 6 -15 17 -34 23 -20
8 -42 26 -54 45 -19 34 -128 97 -165 97 -11 0 -17 6 -14 13 4 14 -44 37 -79
37 -13 0 -34 11 -48 25 -14 14 -34 25 -46 25 -11 0 -38 9 -60 20 -22 11 -45
20 -52 20 -15 0 -86 64 -112 100 l-18 25 6 -27 c4 -16 1 -30 -6 -34 -22 -14
-72 -4 -95 18 -20 18 -27 19 -63 10 -26 -6 -53 -7 -73 -1 -18 5 -43 9 -56 9
-20 0 -22 -2 -11 -15 17 -21 7 -29 -18 -16 -26 14 -45 14 -37 1 3 -5 -1 -10
-10 -10 -11 0 -15 6 -10 19 11 35 -16 42 -98 24 -43 -9 -77 -21 -77 -25 0 -11
-43 1 -51 14 -4 6 -13 6 -25 0 -37 -20 -191 -44 -225 -36 -19 4 -38 6 -44 4
-5 -1 -32 -6 -60 -10 -27 -5 -62 -11 -77 -15 -22 -6 -29 -3 -34 11 -9 26 -45
54 -69 54 -18 0 -18 -1 3 -16 12 -8 22 -24 22 -34 0 -11 8 -20 20 -22 12 -2
22 -7 23 -13 3 -13 -39 -19 -61 -9 -9 4 -25 6 -34 5 -9 -1 -28 5 -41 14 -20
12 -24 23 -22 55 1 22 2 40 1 40 0 0 -14 -8 -31 -18z m855 -11 c0 -6 -5 -13
-10 -16 -15 -9 -43 3 -35 15 8 13 45 13 45 1z m250 -40 c-12 -24 -30 -28 -30
-6 0 13 31 38 38 30 2 -2 -1 -13 -8 -24z m180 -32 c0 -13 -38 -11 -46 2 -9 16
18 30 33 17 7 -6 13 -14 13 -19z m-1284 -16 c-10 -10 -19 5 -10 18 6 11 8 11
12 0 2 -7 1 -15 -2 -18z m1355 -16 c-1 -12 -15 -9 -19 4 -3 6 1 10 8 8 6 -3
11 -8 11 -12z m-1341 -37 c0 -5 -4 -10 -10 -10 -5 0 -10 5 -10 10 0 6 5 10 10
10 6 0 10 -4 10 -10z m-516 -106 c9 -3 16 -14 16 -24 0 -11 9 -20 23 -23 23
-4 20 -6 -35 -26 -21 -8 -28 -17 -28 -36 0 -16 -4 -24 -10 -20 -6 4 -26 -10
-45 -30 -44 -49 -60 -43 -56 20 4 62 23 101 64 125 34 21 46 24 71 14z m-31
-150 c5 -6 -16 -34 -25 -34 -2 0 -4 9 -4 20 0 19 16 27 29 14z m2577 -78 c0
-3 -4 -8 -10 -11 -5 -3 -10 -1 -10 4 0 6 5 11 10 11 6 0 10 -2 10 -4z m-1459
-45 c-10 -17 -9 -20 4 -15 10 4 15 0 15 -15 0 -26 -12 -27 -35 -1 -10 11 -13
20 -7 20 6 0 14 9 17 21 4 11 9 18 12 16 2 -3 0 -15 -6 -26z m-301 -51 c0 -5
-4 -10 -10 -10 -5 0 -10 5 -10 10 0 6 5 10 10 10 6 0 10 -4 10 -10z m-30 -4
c0 -3 -4 -8 -10 -11 -5 -3 -10 -1 -10 4 0 6 5 11 10 11 6 0 10 -2 10 -4z
m-1130 -11 c0 -12 -33 -55 -41 -55 -5 0 -3 14 6 30 13 26 35 41 35 25z m3144
-31 c13 -5 12 -9 -7 -26 -12 -11 -16 -17 -7 -15 18 5 70 -20 70 -33 0 -6 7
-10 16 -10 8 0 12 4 9 10 -3 6 1 7 9 4 20 -8 21 -38 1 -54 -9 -7 -14 -24 -13
-38 2 -14 -4 -29 -13 -35 -22 -14 -63 19 -67 53 -1 13 -8 27 -14 31 -6 4 -12
18 -13 31 -1 12 -5 33 -9 46 -6 17 -4 22 9 22 9 0 13 5 10 10 -7 12 -3 12 19
4z m-2169 -72 c-1 -1 -14 3 -29 9 -19 9 -23 15 -14 20 11 7 50 -20 43 -29z
m1495 -124 c0 -17 -23 -18 -35 -2 -13 18 -14 18 -20 2 -4 -10 -11 -18 -16 -18
-10 0 -13 33 -4 42 7 7 75 -15 75 -24z m435 -29 c4 -6 -2 -13 -13 -16 -11 -3
-23 -11 -26 -19 -8 -22 -46 -18 -46 5 0 28 71 53 85 30z m-155 -59 c-8 -5 -19
-10 -25 -10 -5 0 -3 5 5 10 8 5 20 10 25 10 6 0 3 -5 -5 -10z m-2220 -1560 c0
-5 -4 -10 -9 -10 -6 0 -13 5 -16 10 -3 6 1 10 9 10 9 0 16 -4 16 -10z m270
-195 c0 -8 -4 -15 -10 -15 -5 0 -10 7 -10 15 0 8 5 15 10 15 6 0 10 -7 10 -15z
m-1530 -257 c0 -31 -4 -60 -10 -63 -6 -4 -10 22 -10 72 0 54 3 73 10 63 5 -8
10 -41 10 -72z m267 66 c-3 -3 -12 -4 -19 -1 -8 3 -5 6 6 6 11 1 17 -2 13 -5z
m632 -65 c34 -12 60 -23 57 -26 -3 -3 -51 0 -108 6 -105 12 -211 5 -273 -19
-49 -19 -40 -1 11 22 67 29 98 36 180 37 47 1 90 -6 133 -20z m12 -59 c35 -11
71 -25 79 -31 12 -9 11 -10 -5 -4 -11 3 -67 13 -124 20 -104 14 -238 8 -278
-13 -10 -5 -31 -12 -48 -16 -27 -5 -25 -4 10 14 105 54 252 66 366 30z m21
-48 c34 -20 36 -32 4 -32 -14 0 -27 -4 -31 -10 -8 -13 -185 -7 -212 8 -30 16
-41 15 -45 -5 -3 -15 -6 -14 -17 6 -16 30 -6 39 50 47 24 3 46 8 49 11 11 11
176 -9 202 -25z m83 -42 c3 -5 2 -10 -4 -10 -5 0 -13 5 -16 10 -3 6 -2 10 4
10 5 0 13 -4 16 -10z m-255 -56 c0 -12 -2 -12 -14 -2 -8 7 -12 16 -9 21 7 11
23 -2 23 -19z m120 22 c0 -3 -4 -8 -10 -11 -5 -3 -10 -1 -10 4 0 6 5 11 10 11
6 0 10 -2 10 -4z m20 -166 c-20 -5 -39 -5 -44 1 -6 5 7 9 35 8 l44 -1 -35 -8z
m20 -116 c0 -8 -4 -12 -10 -9 -5 3 -10 10 -10 16 0 5 5 9 10 9 6 0 10 -7 10
-16z m246 -17 c4 -4 1 -7 -7 -7 -8 -1 -2 -11 16 -26 27 -23 28 -25 7 -19 -15
4 -28 2 -35 -8 -12 -15 -57 -30 -57 -19 0 3 9 25 20 48 19 39 38 49 56 31z
m84 -77 c-6 -11 -17 -20 -24 -20 -9 0 -12 7 -9 20 3 11 14 20 25 20 16 0 17
-3 8 -20z m110 10 c0 -5 -14 -10 -31 -10 -17 0 -28 4 -24 10 3 6 17 10 31 10
13 0 24 -4 24 -10z m-325 -60 c3 -5 -1 -10 -10 -10 -9 0 -13 5 -10 10 3 6 8
10 10 10 2 0 7 -4 10 -10z m-155 -24 c0 -16 -18 -31 -27 -22 -8 8 5 36 17 36
5 0 10 -6 10 -14z m-50 -5 c0 -5 -7 -12 -16 -15 -22 -9 -24 -8 -24 9 0 8 9 15
20 15 11 0 20 -4 20 -9z m104 -26 c3 -9 0 -15 -9 -15 -9 0 -12 6 -9 15 4 8 7
15 9 15 2 0 5 -7 9 -15z m50 -54 c6 -9 -16 -21 -40 -21 -20 0 -17 18 4 23 28
8 31 7 36 -2z m-107 -27 c-3 -3 -12 -4 -19 -1 -8 3 -5 6 6 6 11 1 17 -2 13 -5z"/>
<path d="M9100 8630 c0 -5 5 -10 10 -10 6 0 10 5 10 10 0 6 -4 10 -10 10 -5 0
-10 -4 -10 -10z"/>
<path d="M9185 8630 c-3 -5 -1 -10 4 -10 6 0 11 5 11 10 0 6 -2 10 -4 10 -3 0
-8 -4 -11 -10z"/>
<path d="M9528 8593 c6 -2 18 -2 25 0 6 3 1 5 -13 5 -14 0 -19 -2 -12 -5z"/>
<path d="M9441 8574 c0 -11 3 -14 6 -6 3 7 2 16 -1 19 -3 4 -6 -2 -5 -13z"/>
<path d="M9528 7053 c6 -2 18 -2 25 0 6 3 1 5 -13 5 -14 0 -19 -2 -12 -5z"/>
<path d="M6470 6892 c0 -4 9 -8 20 -9 11 -1 18 2 15 8 -7 11 -35 12 -35 1z"/>
<path d="M6456 6839 c-17 -14 -26 -30 -26 -50 0 -19 -5 -29 -15 -29 -8 0 -15
-3 -15 -6 0 -11 29 -34 53 -43 33 -13 53 4 61 52 4 21 15 46 26 57 39 39 -36
57 -84 19z"/>
<path d="M7387 6774 c-4 -4 -4 -17 -1 -29 5 -19 -21 -56 -33 -47 -11 8 -33 0
-33 -13 0 -12 4 -14 18 -6 13 7 23 4 40 -12 17 -16 39 -22 85 -25 80 -5 107
16 107 82 0 41 -2 44 -31 50 -41 8 -144 8 -152 0z"/>
<path d="M8190 6725 c1 -26 2 -28 11 -12 8 14 8 22 0 30 -8 8 -11 3 -11 -18z"/>
<path d="M8270 6729 c0 -5 5 -7 10 -4 6 3 10 8 10 11 0 2 -4 4 -10 4 -5 0 -10
-5 -10 -11z"/>
<path d="M6985 6719 c11 -4 40 -8 64 -8 25 -1 52 -8 61 -16 15 -14 19 -13 35
5 18 20 17 20 -11 21 -16 1 -60 2 -99 3 -40 2 -61 0 -50 -5z"/>
<path d="M8400 6721 c0 -5 5 -13 10 -16 6 -3 10 -2 10 4 0 5 -4 13 -10 16 -5
3 -10 2 -10 -4z"/>
<path d="M7189 6703 c-13 -15 -11 -16 10 -10 13 3 34 1 48 -4 20 -7 24 -15 20
-34 -2 -14 0 -28 4 -31 13 -8 11 -44 -2 -44 -24 0 -79 42 -79 60 0 10 -3 21
-7 23 -11 7 -33 -19 -25 -28 4 -4 -2 -3 -14 3 -19 10 -22 8 -32 -26 -20 -70
-24 -131 -12 -182 l12 -51 26 41 c15 22 34 40 45 40 30 0 95 38 102 60 3 11 4
29 0 39 -3 11 -1 22 5 26 6 4 8 20 4 41 -4 24 -1 42 11 60 19 29 13 43 -10 24
-8 -7 -15 -8 -15 -3 0 17 -77 14 -91 -4z"/>
<path d="M8150 6575 c0 -8 2 -15 4 -15 2 0 6 7 10 15 3 8 1 15 -4 15 -6 0 -10
-7 -10 -15z"/>
<path d="M8376 6564 c-17 -12 -17 -14 -4 -14 9 0 20 5 23 11 11 17 2 18 -19 3z"/>
<path d="M3085 5980 c-4 -6 3 -10 14 -10 12 0 21 -4 21 -10 0 -5 5 -10 10 -10
19 0 10 17 -15 28 -15 7 -27 8 -30 2z"/>
<path d="M4200 5942 c-19 -8 -37 -18 -40 -22 -10 -15 -80 -49 -80 -39 0 6 -9
9 -20 6 -27 -7 -25 8 3 28 21 15 18 15 -53 10 -41 -3 -79 -11 -85 -18 -25 -31
-43 -39 -64 -27 -14 7 -21 7 -21 0 0 -5 5 -10 10 -10 20 0 9 -18 -14 -24 -20
-5 -59 -61 -61 -88 -1 -19 -15 -18 -15 1 0 29 -24 22 -28 -8 -2 -12 2 -28 8
-36 20 -24 1 -38 -26 -21 -20 14 -23 14 -18 1 4 -8 1 -15 -5 -15 -6 0 -11 -17
-11 -40 0 -36 2 -40 25 -40 22 0 24 -3 15 -19 -7 -14 -6 -29 5 -54 8 -19 11
-37 8 -41 -4 -4 -6 -24 -5 -45 2 -21 -5 -60 -13 -86 -20 -56 -14 -103 21 -175
14 -28 22 -55 19 -61 -4 -5 -2 -9 4 -9 6 0 14 -12 17 -27 12 -51 95 -165 109
-151 8 8 8 80 0 121 -6 29 -5 37 7 37 8 0 25 11 38 25 14 15 39 27 67 31 55 8
61 2 30 -27 -14 -13 -27 -36 -31 -50 -6 -30 10 -41 84 -59 25 -6 56 -15 70
-20 14 -6 50 -12 80 -14 79 -6 100 -14 100 -41 0 -12 9 -30 21 -41 20 -18 20
-18 14 9 -6 22 -3 28 17 36 37 14 78 2 89 -27 13 -33 5 -38 -26 -18 -15 10
-34 14 -45 11 -16 -5 -17 -10 -10 -31 15 -39 -17 -45 -47 -8 l-24 29 7 -30
c11 -50 14 -52 141 -104 56 -23 88 -27 98 -11 8 13 75 13 75 -1 0 -6 14 -9 33
-7 31 3 32 4 30 46 -2 30 2 42 12 42 8 0 17 -4 20 -10 8 -13 55 -13 55 -1 0 5
10 13 23 17 33 11 141 11 148 1 12 -17 31 5 26 29 -4 21 -1 23 15 18 17 -5 19
-3 13 15 -5 16 -2 21 12 21 11 0 24 -5 29 -10 6 -6 18 -8 27 -4 13 4 14 10 7
24 -15 29 -13 30 31 15 28 -10 46 -12 59 -5 10 6 30 10 44 10 28 0 35 14 13
23 -9 3 -12 16 -9 35 3 23 0 30 -17 35 -15 3 -21 13 -21 31 0 14 -4 26 -10 26
-5 0 -10 14 -10 31 0 28 1 29 16 15 8 -9 19 -16 24 -16 5 0 11 -9 15 -19 5
-18 61 -35 70 -21 2 3 -5 22 -17 40 -13 22 -16 36 -9 38 7 2 1 16 -14 34 -14
16 -25 33 -25 37 0 9 57 62 65 60 20 -3 26 11 7 17 -28 8 -24 28 8 32 18 3 20
6 9 13 -10 6 -11 9 -1 9 7 0 33 -21 58 -46 34 -36 50 -45 69 -42 19 4 25 0 30
-19 3 -14 11 -23 18 -20 16 5 21 45 7 62 -8 10 -8 15 1 20 6 4 15 2 19 -5 14
-22 19 33 10 105 -5 39 -9 106 -10 151 0 74 -3 85 -31 123 -25 35 -35 42 -54
37 -14 -4 -32 1 -48 14 -14 11 -29 20 -34 20 -5 0 -22 14 -39 31 -39 41 -64
55 -74 39 -6 -9 -14 -8 -33 5 -14 9 -36 15 -49 14 -39 -4 -84 11 -109 37 -38
41 -86 56 -144 47 -27 -4 -62 -6 -77 -5 -21 3 -28 -1 -28 -14 0 -13 -5 -15
-22 -9 -13 4 -53 9 -91 11 -37 1 -72 6 -77 9 -11 7 -94 18 -125 17 -62 -3 -95
-9 -109 -21 -14 -12 -26 -12 -74 -1 -31 8 -59 17 -62 20 -3 4 -21 0 -40 -8z
m375 -12 c3 -5 1 -10 -4 -10 -6 0 -11 5 -11 10 0 6 2 10 4 10 3 0 8 -4 11 -10z
m-766 -182 c-7 -13 -14 -18 -16 -11 -3 7 1 22 8 35 7 13 14 18 16 11 3 -7 -1
-22 -8 -35z m1141 -308 c11 -8 7 -9 -15 -4 -37 8 -45 14 -19 14 10 0 26 -5 34
-10z m-145 -14 c61 -17 160 -67 200 -101 28 -23 28 -25 8 -25 -12 0 -23 5 -25
10 -2 6 -14 12 -27 15 -14 2 -36 15 -50 29 -14 13 -31 22 -37 20 -6 -3 -44 11
-85 30 -77 36 -70 46 16 22z m712 -56 c-1 -11 -7 -20 -14 -20 -15 0 -15 2 -7
24 9 23 23 20 21 -4z m-776 -26 c11 -14 10 -19 -10 -35 -28 -23 -45 -25 -37
-3 3 9 6 24 6 35 0 23 23 25 41 3z m-213 -11 c2 -8 -5 -13 -17 -13 -12 0 -21
6 -21 16 0 18 31 15 38 -3z m340 -22 c2 -7 -4 -23 -13 -37 -14 -21 -21 -24
-48 -19 -18 4 -36 11 -41 15 -13 13 4 68 22 72 21 5 75 -16 80 -31z m-422 -9
c-10 -10 -29 15 -21 28 6 9 10 8 17 -4 6 -10 7 -20 4 -24z m490 -20 c23 -15
25 -48 4 -70 -42 -45 -58 -13 -34 66 4 14 14 15 30 4z m146 -19 c32 -30 53
-63 41 -63 -15 0 -94 76 -87 83 11 10 13 9 46 -20z m-544 -60 c-10 -2 -28 -2
-40 0 -13 2 -5 4 17 4 22 1 32 -1 23 -4z m507 -53 c-3 -6 -12 -10 -20 -10 -10
0 -11 5 -2 24 10 20 14 22 20 10 4 -8 5 -19 2 -24z m-710 -51 c6 -30 19 -68
28 -86 9 -18 17 -37 17 -44 0 -13 -39 -5 -84 17 -16 8 -35 14 -43 14 -7 0 -13
5 -13 10 0 6 -13 10 -30 10 -24 0 -31 5 -36 26 -12 48 79 119 140 109 5 -1 15
-26 21 -56z m-255 -44 c0 -17 -2 -18 -24 -9 -23 9 -20 24 4 24 11 0 20 -7 20
-15z m40 1 c0 -3 -4 -8 -10 -11 -5 -3 -10 -1 -10 4 0 6 5 11 10 11 6 0 10 -2
10 -4z m680 -48 c0 -5 -4 -8 -10 -8 -5 0 -10 10 -10 23 0 18 2 19 10 7 5 -8
10 -18 10 -22z m-279 -94 c25 -30 20 -48 -7 -23 -13 12 -24 26 -24 31 0 13 17
9 31 -8z m139 -10 c0 -2 -7 -4 -15 -4 -8 0 -15 4 -15 10 0 5 7 7 15 4 8 -4 15
-8 15 -10z m147 -20 c-3 -3 -12 -4 -19 -1 -8 3 -5 6 6 6 11 1 17 -2 13 -5z"/>
<path d="M3160 5935 c-14 -16 -8 -18 28 -8 18 4 20 8 10 14 -18 12 -24 11 -38
-6z"/>
<path d="M3110 5860 c0 -5 7 -7 15 -4 8 4 15 8 15 10 0 2 -7 4 -15 4 -8 0 -15
-4 -15 -10z"/>
<path d="M3170 5860 c0 -5 11 -10 25 -10 14 0 25 5 25 10 0 6 -11 10 -25 10
-14 0 -25 -4 -25 -10z"/>
<path d="M3736 5840 c-11 -3 -15 -9 -10 -12 26 -14 43 -15 48 -3 6 17 -13 24
-38 15z"/>
<path d="M3680 5812 c0 -5 -9 -12 -20 -15 -13 -3 -20 -14 -20 -31 0 -18 4 -24
15 -20 8 4 13 9 10 14 -2 4 4 16 15 28 12 12 16 23 10 27 -6 3 -10 2 -10 -3z"/>
<path d="M3430 5796 c0 -2 7 -12 16 -20 17 -18 39 -22 29 -6 -7 11 -45 33 -45
26z"/>
<path d="M3480 5790 c0 -5 7 -10 16 -10 8 0 12 5 9 10 -3 6 -10 10 -16 10 -5
0 -9 -4 -9 -10z"/>
<path d="M3520 5782 c0 -5 7 -13 16 -16 25 -10 74 -7 74 4 0 6 -13 10 -29 10
-16 0 -36 3 -45 6 -9 3 -16 2 -16 -4z"/>
<path d="M3555 5736 c-11 -6 -21 -11 -23 -12 -1 -1 0 -8 4 -17 5 -13 9 -14 27
-4 12 7 24 13 25 14 2 1 0 8 -5 16 -6 11 -12 12 -28 3z"/>
<path d="M3650 5711 c0 -5 7 -11 15 -15 9 -3 15 0 15 9 0 8 -7 15 -15 15 -8 0
-15 -4 -15 -9z"/>
<path d="M9522 5695 c-29 -33 -28 -46 8 -80 l30 -29 0 67 c0 37 -4 67 -8 67
-5 0 -18 -11 -30 -25z"/>
<path d="M6676 5672 c29 -27 36 -29 200 -40 496 -35 603 -44 643 -57 89 -29
105 -13 36 36 -37 25 -51 28 -190 38 -82 6 -267 20 -410 31 -143 11 -271 20
-285 20 l-25 -1 31 -27z"/>
<path d="M9175 5429 c11 -17 97 -53 130 -54 17 -1 81 -5 143 -9 l112 -8 0 30
0 29 -107 7 c-263 16 -285 17 -278 5z"/>
<path d="M0 4148 c0 -612 4 -938 10 -928 8 13 10 12 10 -2 0 -10 -4 -18 -10
-18 -6 0 -10 -25 -9 -57 l1 -58 14 33 c25 57 33 34 10 -30 l-21 -63 -3 -1512
-2 -1513 4642 0 4643 0 -35 22 c-77 47 -275 129 -454 187 -183 60 -190 63
-255 120 -79 69 -146 115 -206 142 l-45 20 0 56 c0 78 -25 158 -68 222 -46 68
-74 88 -134 100 -30 5 -61 20 -88 44 -41 35 -117 76 -195 104 -74 27 -161 34
-300 23 -73 -6 -139 -8 -147 -5 -7 3 -26 25 -42 50 -15 25 -51 69 -80 98 -28
28 -64 69 -79 90 -16 20 -67 77 -115 125 -71 73 -102 96 -167 127 -44 20 -91
45 -105 54 -33 23 -99 47 -178 65 -35 8 -71 21 -80 29 -35 30 -127 69 -230 96
-232 61 -304 81 -311 85 -4 3 -77 6 -162 7 -121 2 -164 6 -201 20 -95 37 -358
34 -358 -3 0 -11 28 -10 32 2 2 5 4 -36 5 -91 2 -56 7 -107 11 -113 36 -47 59
-297 38 -426 -12 -77 -67 -312 -87 -375 -20 -62 -22 -66 -59 -149 -22 -51 -39
-59 -19 -10 16 42 80 293 86 334 2 19 8 46 13 60 24 63 40 257 21 246 -4 -3
-7 -23 -6 -45 2 -30 -1 -38 -12 -34 -8 3 -11 0 -8 -9 3 -8 1 -32 -4 -53 -5
-22 -9 -33 -10 -24 -1 19 -28 33 -36 19 -4 -6 -1 -10 4 -10 6 0 11 -5 11 -10
0 -6 -10 -4 -22 4 -30 18 -88 28 -88 16 0 -6 -4 -10 -10 -10 -18 0 -10 22 10
27 24 6 26 19 5 27 -25 9 -17 23 13 19 25 -3 26 -3 5 6 -13 6 -23 17 -23 26 0
8 -7 15 -15 15 -8 0 -15 5 -15 10 0 6 7 10 15 10 8 0 15 5 15 10 0 6 -4 10
-10 10 -6 0 -6 9 0 26 14 35 14 34 -22 34 -27 1 -30 2 -15 11 12 7 15 17 11
33 -4 18 0 28 17 40 l23 16 -22 0 c-28 0 -29 23 -1 51 19 19 19 22 4 33 -9 6
-17 21 -18 34 0 12 -5 22 -9 22 -22 0 -4 29 20 33 l27 4 -27 2 c-35 1 -37 21
-3 21 14 0 25 5 25 10 0 6 -7 10 -15 10 -9 0 -12 6 -9 15 8 20 61 20 81 0 8
-8 20 -12 26 -8 8 5 6 9 -6 11 -9 2 -15 7 -12 12 3 5 1 11 -5 15 -5 3 -10 10
-10 16 0 13 28 11 32 -3 3 -9 6 -9 12 0 4 7 2 12 -3 12 -6 0 -11 7 -11 15 0
17 -21 20 -37 4 -8 -8 -13 -8 -17 0 -4 6 0 11 8 11 9 0 16 7 16 15 0 9 7 18
15 21 8 4 15 12 15 19 0 16 29 73 41 80 5 4 9 15 9 26 0 10 5 19 11 19 8 0 7
5 -1 15 -10 13 -9 19 6 36 16 17 16 19 1 13 -9 -3 -17 -2 -17 4 0 5 7 13 16
16 22 9 24 8 24 -9 0 -8 4 -15 9 -15 4 0 6 22 3 50 -4 40 -1 51 12 56 11 4 16
19 16 52 0 48 24 126 47 153 9 11 12 29 7 58 -9 56 7 74 60 67 23 -3 35 -3 28
0 -7 3 -17 14 -22 25 -10 17 -7 19 21 19 24 0 40 -10 68 -40 20 -22 41 -40 46
-40 17 0 51 -43 70 -87 10 -24 22 -43 27 -43 4 0 12 -17 17 -37 19 -69 111
-146 111 -94 0 12 -4 21 -10 21 -5 0 -7 13 -4 28 4 19 -1 41 -16 66 -16 30
-18 41 -9 52 9 11 9 14 -1 14 -8 0 -10 9 -6 26 6 21 4 25 -8 21 -9 -4 -16 -3
-17 1 0 4 -2 30 -3 57 -3 48 -9 67 -62 180 -90 195 -95 207 -89 257 4 38 3 48
-9 48 -12 0 -14 5 -6 26 6 14 10 36 10 50 0 28 0 27 36 14 50 -19 92 -21 129
-5 32 13 35 17 25 30 -7 8 -17 15 -21 15 -5 0 -25 14 -44 31 -34 31 -53 86
-47 137 2 12 -2 22 -8 22 -14 0 -13 30 3 60 17 33 27 71 17 65 -4 -3 -19 1
-34 8 -19 11 -22 17 -14 25 9 9 9 15 0 24 -9 9 -15 8 -27 -8 -8 -10 -12 -25
-10 -31 7 -19 -10 -15 -30 7 -13 14 -16 28 -11 55 6 28 4 35 -9 35 -10 0 -15
-10 -15 -34 0 -36 -23 -90 -33 -79 -12 11 -7 36 10 55 13 14 14 21 5 30 -15
15 -24 5 -41 -46 -11 -32 -11 -40 0 -47 12 -7 12 -12 1 -29 -13 -21 -8 -60 7
-60 13 0 33 -56 29 -82 -3 -20 -7 -16 -28 25 -13 27 -28 51 -32 53 -13 8 -20
-43 -9 -64 17 -31 14 -44 -9 -37 -15 5 -20 2 -20 -14 0 -11 5 -23 10 -26 17
-10 50 5 50 23 0 12 3 13 12 4 9 -9 9 -15 0 -24 -7 -7 -12 -18 -12 -26 0 -8
-8 -26 -18 -40 -26 -38 -42 -98 -30 -110 6 -6 7 -16 2 -23 -5 -9 -10 -5 -17
12 -9 21 -11 22 -14 5 -3 -10 0 -23 6 -29 15 -15 14 -27 -4 -27 -23 0 -36 36
-31 83 3 23 5 45 5 50 1 4 5 7 11 7 5 0 7 -13 3 -32 -4 -22 -3 -29 5 -24 7 4
12 16 12 27 0 10 9 28 20 39 31 31 12 79 -30 80 -12 0 -15 8 -12 35 3 28 1 35
-13 35 -14 0 -15 -3 -6 -14 9 -11 9 -20 2 -35 -8 -14 -8 -20 0 -23 6 -2 11
-19 12 -38 2 -30 -1 -35 -21 -35 -31 -1 -56 -33 -40 -52 6 -7 8 -17 4 -21 -4
-4 -16 4 -26 18 -19 24 -20 24 -20 3 0 -14 9 -24 29 -31 28 -10 28 -11 20 -63
-5 -29 -14 -56 -21 -61 -10 -8 -10 -11 0 -15 6 -2 12 -12 12 -20 0 -11 6 -14
23 -9 12 3 25 6 30 6 17 0 5 20 -12 20 -25 0 -32 11 -24 39 4 16 10 20 25 15
15 -5 19 -3 13 7 -5 10 -3 9 7 -1 19 -20 13 -110 -8 -110 -8 0 -14 -7 -14 -15
0 -8 7 -15 15 -15 8 0 15 6 15 13 0 8 3 8 9 -2 7 -10 1 -22 -20 -40 -35 -31
-38 -54 -6 -49 18 2 21 -1 19 -22 -5 -34 -9 -36 -33 -22 -26 17 -42 6 -36 -25
6 -34 -48 -163 -81 -192 -17 -16 -23 -26 -14 -29 6 -2 12 -10 12 -17 0 -19
-27 -26 -40 -9 -7 8 -23 14 -35 14 -33 0 -55 10 -55 26 0 7 -8 18 -17 24 -14
9 -11 10 15 5 39 -8 44 10 6 27 -14 7 -32 23 -39 37 -8 14 -14 20 -15 13 0 -8
-7 -11 -17 -9 -10 3 -36 8 -57 12 -36 6 -38 5 -22 -10 21 -22 15 -41 -12 -38
-18 2 -21 -5 -27 -57 -6 -54 -9 -59 -25 -50 -24 13 -43 13 -35 0 9 -15 -5 -90
-16 -90 -5 0 -9 10 -9 23 0 12 -7 30 -14 40 -12 16 -14 15 -19 -15 -2 -18 0
-36 6 -40 6 -4 11 -23 11 -42 0 -28 3 -33 13 -24 7 6 13 16 13 22 0 7 14 25
30 41 25 24 30 26 30 11 0 -15 5 -17 26 -12 16 4 23 3 20 -3 -11 -18 14 -23
30 -6 9 9 19 13 22 10 4 -3 0 -10 -7 -14 -17 -11 -6 -31 17 -31 9 -1 28 -8 42
-16 24 -15 24 -15 -18 -9 -30 4 -47 1 -57 -9 -12 -12 -12 -15 4 -19 10 -2 21
-14 24 -26 4 -17 -1 -25 -21 -34 -15 -7 -34 -21 -43 -32 -14 -16 -19 -17 -33
-6 -28 24 -18 -7 14 -39 35 -36 39 -55 9 -47 -18 5 -20 2 -17 -17 3 -15 -2
-27 -14 -35 -10 -6 -18 -17 -18 -25 0 -7 -7 -19 -16 -27 -9 -8 -13 -21 -10
-35 5 -17 0 -26 -15 -34 -16 -9 -18 -14 -8 -26 9 -11 8 -14 -4 -14 -9 0 -21
-9 -27 -20 -6 -11 -16 -20 -21 -20 -11 0 -8 26 8 66 5 14 3 16 -11 11 -13 -5
-24 1 -38 18 -11 14 -27 25 -36 26 -11 0 -12 2 -4 6 6 2 10 9 6 14 -10 17 22
9 44 -12 12 -11 27 -17 32 -14 6 4 -8 22 -31 40 -39 33 -41 34 -65 18 -14 -9
-23 -22 -20 -29 3 -9 -4 -16 -19 -20 -28 -7 -45 1 -45 22 0 11 6 13 21 9 14
-5 25 -2 30 6 12 18 11 32 0 24 -5 -3 -12 -1 -16 5 -6 10 6 14 38 11 9 -1 17
3 17 10 0 6 8 9 20 6 11 -3 20 -1 20 4 0 5 -11 9 -25 9 -14 0 -25 5 -25 10 0
6 9 10 20 10 12 0 20 6 18 13 -1 6 4 22 11 35 7 13 11 33 9 45 -2 18 -9 22
-35 21 -26 -2 -32 3 -38 24 -5 19 -1 30 11 39 10 7 15 16 11 19 -4 4 -2 13 5
21 9 12 7 13 -14 8 -19 -5 -32 -1 -47 14 -24 24 -28 53 -6 45 8 -4 17 1 21 10
3 9 12 16 20 16 8 0 14 9 14 21 0 11 4 17 10 14 6 -4 17 -1 25 5 17 14 20 66
5 75 -5 3 -6 13 -3 22 4 10 -3 22 -18 34 -19 14 -22 20 -11 30 20 21 14 59
-15 105 -30 47 -52 62 -63 43 -6 -8 -9 -8 -14 0 -4 6 -2 11 3 11 18 0 12 24
-8 37 -19 12 -35 53 -21 53 4 0 15 -11 24 -25 9 -14 21 -25 27 -25 7 0 4 11
-6 26 -21 33 -13 41 21 19 17 -11 24 -12 19 -4 -18 31 -39 49 -58 49 -10 0
-28 11 -39 25 -14 17 -29 25 -52 25 -17 0 -38 6 -45 13 -11 10 -13 9 -8 -5 3
-9 1 -19 -6 -21 -9 -3 -9 -8 -1 -17 8 -8 14 -9 18 -1 11 16 42 13 57 -6 11
-13 11 -17 1 -21 -9 -2 -10 -8 -3 -16 5 -6 16 -31 25 -56 l15 -45 -38 40 c-21
22 -37 42 -35 44 9 10 -31 41 -53 41 -15 0 -23 6 -24 18 -2 32 -4 37 -23 69
-14 22 -27 32 -42 31 -22 -2 -23 -28 -1 -28 6 0 7 -3 4 -6 -4 -4 -17 1 -31 9
-23 16 -25 15 -28 -4 -3 -18 -5 -18 -38 10 -20 16 -44 30 -55 32 -11 2 -24 14
-30 27 -12 27 -35 29 -35 2 0 -23 -10 -26 -28 -8 -9 9 -12 8 -12 -4 0 -43 -63
-24 -125 37 -41 42 -58 45 -49 9 6 -23 4 -25 -15 -19 -12 4 -21 2 -21 -4 0 -6
-7 -11 -15 -11 -22 0 -18 21 5 27 15 4 20 14 20 37 0 18 -5 37 -12 44 -14 14
-12 15 30 3 17 -5 32 -6 32 -1 0 5 -12 10 -27 12 -36 4 -82 78 -48 78 9 0 15
9 15 23 0 12 7 34 14 50 11 21 12 27 2 27 -7 0 -22 9 -34 20 -18 17 -22 18
-22 5 0 -8 5 -15 11 -15 5 0 7 -5 3 -11 -4 -7 -9 -7 -13 -2 -3 5 -14 12 -23
16 -26 9 -22 21 22 68 22 24 40 51 40 60 0 10 4 20 9 24 5 3 13 20 16 38 4 17
16 49 28 69 18 33 19 41 8 62 -7 13 -25 30 -40 37 -14 8 -29 18 -33 23 -13 18
-168 34 -168 17 0 -6 -7 -11 -16 -11 -9 0 -26 -9 -38 -19 -11 -11 -56 -47 -98
-80 -60 -47 -85 -61 -111 -61 -18 0 -38 -5 -44 -11 -12 -12 -132 -15 -240 -6
-57 5 -73 3 -73 -7 0 -7 -7 -13 -15 -13 -11 0 -12 4 -4 14 8 9 8 13 1 13 -6 0
-14 9 -17 20 -3 11 -12 20 -19 20 -8 0 -16 13 -19 29 -4 20 -16 32 -39 42 -18
7 -39 12 -47 11 -9 -2 -12 2 -8 12 4 10 1 16 -8 16 -8 0 -15 7 -15 15 0 8 -7
15 -15 15 -9 0 -20 10 -26 23 -35 73 -132 95 -225 51 l-56 -26 8 -37 c4 -20 7
-43 6 -51 -1 -18 -11 -121 -13 -135 -1 -5 1 -20 5 -32 7 -20 5 -21 -24 -13
-28 8 -30 7 -30 -17 0 -13 -8 -36 -19 -49 l-18 -23 -10 21 c-9 20 -11 19 -33
-18 -13 -21 -23 -42 -22 -46 2 -9 -104 -78 -120 -78 -22 1 66 70 89 70 15 0
21 5 17 14 -3 8 -13 12 -25 9 -12 -3 -19 0 -19 8 0 10 -3 10 -12 1 -7 -7 -19
-12 -28 -12 -9 0 -27 -11 -40 -25 -13 -13 -41 -34 -63 -45 l-39 -21 21 27 c12
15 19 29 16 32 -9 9 -45 -31 -45 -51 0 -13 -5 -17 -16 -13 -9 3 -22 6 -29 6
-7 0 -12 7 -11 16 2 27 -42 24 -64 -3 -10 -13 -21 -29 -24 -36 -3 -8 -7 -9
-13 -2 -4 6 -20 16 -34 22 -22 10 -34 8 -70 -11 -59 -30 -126 -73 -134 -86 -3
-5 -15 -10 -25 -10 -10 0 -22 -5 -26 -12 -5 -8 -2 -9 12 -4 37 15 98 20 90 8
-4 -7 -18 -12 -30 -12 -13 0 -29 -7 -36 -15 -7 -9 -8 -15 -2 -15 6 0 8 -10 5
-22 l-6 -23 19 24 c12 14 28 22 39 19 17 -3 14 -10 -25 -53 -89 -99 -86 -93
-59 -104 13 -5 18 -10 11 -10 -14 -1 -51 -40 -52 -53 0 -5 9 -8 20 -8 17 0 20
-7 20 -40 0 -43 -20 -55 -39 -22 -7 13 -10 2 -10 -43 1 -80 1 -81 -12 -68 -7
7 -13 42 -14 80 -3 64 -11 100 -37 150 -14 28 -5 51 27 63 14 5 25 14 25 19 0
6 -15 4 -35 -5 -44 -18 -55 -18 -55 2 0 12 -7 15 -24 12 -15 -3 -27 0 -30 8
-4 10 2 12 25 7 16 -3 29 -2 28 3 -4 23 3 34 20 34 11 0 23 5 26 10 4 6 -10
10 -35 10 -25 0 -39 4 -35 10 3 6 17 10 29 10 15 0 26 7 29 20 4 17 1 18 -27
13 -40 -8 -101 -38 -126 -63 -24 -24 -27 -14 -3 12 9 11 11 18 5 18 -25 0 -11
19 18 25 34 7 39 20 13 29 -10 3 -24 9 -30 12 -8 3 -13 -1 -13 -10 0 -9 -3
-16 -8 -16 -4 0 -7 18 -7 40 0 32 3 40 20 42 11 2 19 9 17 16 -1 6 5 12 14 12
14 0 14 3 4 15 -7 8 -9 15 -4 16 5 0 -2 5 -16 10 -15 6 -20 13 -13 17 8 5 7
12 -3 26 -13 19 -14 19 -14 -6 0 -14 -7 -29 -16 -32 -13 -5 -15 0 -9 36 6 35
5 41 -6 31 -20 -20 -31 -15 -27 10 2 16 9 22 26 21 24 -1 30 11 10 19 -7 3 -1
6 15 6 23 1 27 5 27 31 0 28 -1 29 -25 18 -22 -10 -28 -8 -47 12 -15 16 -18
25 -10 28 14 4 16 38 3 46 -5 4 -11 0 -14 -6 -2 -7 -7 14 -11 47 -7 57 -22
117 -52 213 -8 23 -14 52 -14 63 0 38 -25 13 -31 -30 -4 -28 -1 -45 8 -52 19
-17 16 -50 -6 -56 -17 -4 -32 -26 -45 -65 -2 -9 4 -28 16 -43 11 -14 18 -34
15 -45 -4 -14 3 -21 25 -29 22 -8 28 -14 21 -23 -5 -7 -10 -24 -11 -37 0 -13
-8 -31 -16 -40 -9 -10 -16 -25 -16 -35 0 -9 -7 -19 -15 -22 -18 -7 -20 -50 -2
-58 6 -3 2 -3 -11 0 -13 3 -29 0 -37 -6 -8 -6 -20 -8 -27 -4 -6 4 -3 -7 8 -26
30 -51 68 -74 132 -80 l57 -5 -2 -35 c-1 -19 -5 -54 -8 -77 -5 -30 -4 -48 5
-58 10 -12 10 -19 2 -27 -17 -17 -15 -29 6 -26 9 2 16 -1 15 -7 -17 -104 -20
-161 -11 -184 6 -14 11 -53 12 -86 0 -33 5 -66 10 -74 5 -8 4 -16 -5 -22 -11
-7 -10 -9 4 -9 18 0 23 -25 9 -47 -6 -10 -20 -9 -62 3 -57 16 -296 37 -435 38
-120 1 -170 -26 -307 -164 -84 -87 -113 -110 -135 -110 -60 0 -223 24 -347 51
-47 10 -54 14 -37 21 17 6 21 16 21 50 0 24 5 124 10 223 17 314 40 963 40
1152 0 100 4 193 9 206 9 24 88 73 271 167 36 18 124 65 195 103 72 39 146 78
165 87 l35 18 -60 6 c-192 21 -180 4 -171 237 3 100 9 186 12 190 3 5 64 7
136 4 105 -3 134 -1 153 11 15 10 25 12 30 5 3 -6 -2 -11 -11 -11 -10 0 -15
-3 -11 -6 3 -4 14 -3 24 1 10 5 23 9 28 9 6 1 13 19 17 41 3 22 9 50 13 62 6
18 3 23 -16 27 -28 7 -541 49 -856 71 l-93 7 0 -944z m2570 -728 c0 -5 -7 -7
-15 -4 -8 4 -15 8 -15 10 0 2 7 4 15 4 8 0 15 -4 15 -10z m2956 -26 c4 -14 2
-30 -4 -36 -8 -8 -9 -5 -5 11 3 12 1 21 -6 21 -6 0 -11 7 -11 15 0 25 19 17
26 -11z m114 12 c0 -16 -18 -31 -27 -22 -8 8 5 36 17 36 5 0 10 -6 10 -14z
m-3235 -96 c-3 -5 -12 -10 -18 -10 -7 0 -6 4 3 10 19 12 23 12 15 0z m-945
-14 c0 -2 -7 -9 -15 -16 -12 -10 -15 -10 -15 4 0 9 7 16 15 16 8 0 15 -2 15
-4z m2299 -32 c-14 -18 -24 -11 -15 11 3 9 11 13 16 10 8 -5 7 -11 -1 -21z
m-1549 7 c0 -5 -7 -12 -16 -15 -24 -9 -28 -7 -14 9 14 17 30 20 30 6z m1612
-113 c-6 -6 -12 -6 -16 1 -4 6 -2 11 3 11 6 0 12 8 12 18 1 15 2 15 6 -2 3
-10 0 -23 -5 -28z m-2293 -55 c-1 -17 -60 -54 -81 -51 -20 3 -17 7 22 30 48
28 60 32 59 21z m2441 -113 c0 -5 -2 -10 -4 -10 -3 0 -8 5 -11 10 -3 6 -1 10
4 10 6 0 11 -4 11 -10z m-2440 -30 c0 -5 -2 -10 -4 -10 -3 0 -8 5 -11 10 -3 6
-1 10 4 10 6 0 11 -4 11 -10z m2470 -5 c0 -8 -2 -15 -4 -15 -2 0 -6 7 -10 15
-3 8 -1 15 4 15 6 0 10 -7 10 -15z m331 -71 c12 -14 11 -16 -5 -13 -11 2 -21
10 -24 17 -5 17 13 15 29 -4z m-2881 -18 c0 -3 -4 -8 -10 -11 -5 -3 -10 -1
-10 4 0 6 5 11 10 11 6 0 10 -2 10 -4z m1360 -82 c9 -22 13 -24 25 -14 12 10
18 10 30 0 8 -7 25 -10 39 -6 15 4 28 0 37 -10 8 -9 21 -13 35 -10 12 3 32 2
45 -2 12 -5 41 -5 65 -2 28 4 50 3 62 -5 22 -15 64 -26 57 -15 -6 10 68 6 85
-5 6 -4 36 -4 66 0 45 5 57 11 69 33 l14 27 1 -25 c0 -15 -6 -32 -12 -39 -11
-11 -5 -12 32 -8 25 3 55 9 66 12 16 5 23 2 26 -13 5 -16 17 -20 69 -24 35 -3
71 -2 79 2 26 13 80 0 80 -20 0 -17 19 -30 43 -30 7 0 6 5 -3 11 -11 8 -9 9
10 3 24 -6 32 -15 55 -59 9 -18 6 -21 -24 -32 -20 -7 -40 -8 -46 -4 -16 14
-96 33 -135 33 -19 0 -47 6 -62 14 -15 8 -46 14 -70 14 -24 0 -56 7 -72 15
-15 8 -37 15 -47 15 -10 0 -20 4 -23 9 -7 11 -195 -22 -204 -36 -4 -6 -31 -16
-60 -23 -46 -11 -55 -10 -71 4 -10 9 -22 16 -28 16 -16 0 -72 31 -99 56 -30
27 -162 58 -251 59 -40 0 -73 -2 -73 -5 0 -3 -15 -6 -34 -6 l-35 0 42 41 c27
28 46 39 53 33 7 -5 23 -4 39 4 24 11 29 10 45 -10 10 -12 21 -18 24 -13 3 5
16 7 28 3 18 -4 20 -2 16 16 -8 31 0 27 12 -4z m1649 19 c0 -5 -4 -17 -9 -28
-8 -19 -9 -19 -9 2 -1 12 -7 24 -13 26 -7 3 -3 6 10 6 12 1 22 -2 21 -6z
m-2739 -19 c0 -18 -26 -19 -33 -1 -3 8 3 14 14 14 11 1 19 -5 19 -13z m824
-55 c-8 -14 -31 -11 -31 5 0 8 8 11 19 8 10 -2 15 -8 12 -13z m-834 -49 c0
-11 -40 -34 -47 -26 -7 7 20 35 35 36 6 0 12 -4 12 -10z m515 -130 c4 -6 10
-8 15 -5 9 6 90 -75 90 -90 0 -6 -6 -19 -13 -30 -21 -32 -15 -50 16 -47 35 4
67 -14 67 -36 0 -10 14 -28 30 -40 17 -13 30 -32 30 -43 0 -14 5 -19 14 -16
10 4 13 1 9 -9 -5 -14 -3 -14 14 -3 20 12 26 11 73 -16 21 -12 22 -15 7 -21
-45 -17 14 -55 63 -39 11 4 20 2 20 -4 0 -6 -21 -11 -50 -11 -38 0 -54 5 -70
22 -16 17 -23 19 -32 10 -7 -7 -26 -12 -44 -12 -52 0 -64 -9 -64 -46 0 -19 -4
-34 -10 -34 -5 0 -10 -18 -10 -40 0 -31 4 -40 17 -40 9 0 13 -3 10 -7 -9 -8
22 -43 38 -43 7 0 26 -13 43 -30 18 -16 41 -30 52 -30 14 0 20 -7 20 -21 0
-25 26 -54 35 -39 10 16 22 12 28 -10 3 -11 12 -20 20 -20 9 0 21 -13 28 -29
8 -18 27 -36 49 -45 46 -19 75 -28 76 -24 0 2 8 -3 16 -10 9 -7 24 -9 33 -5
13 4 16 3 11 -5 -4 -7 -1 -12 8 -12 20 0 20 -9 -1 -32 -15 -17 -15 -18 0 -18
10 0 17 -7 17 -15 0 -10 11 -15 35 -15 19 0 35 -4 35 -8 0 -4 16 -6 35 -4 34
4 50 -13 22 -24 -8 -3 -11 -18 -9 -44 4 -41 10 -48 28 -30 8 8 15 6 24 -5 14
-17 35 -21 25 -5 -9 15 4 50 20 50 7 0 16 5 18 10 3 6 4 5 3 -2 -3 -14 51 -58
71 -58 22 0 15 28 -14 54 -25 24 -26 27 -11 42 15 15 18 14 46 -6 17 -13 38
-20 46 -17 20 8 21 26 1 33 -8 4 -15 13 -15 21 0 8 5 11 11 7 6 -3 15 -1 19 6
6 10 15 10 40 1 43 -15 93 -14 109 2 10 10 14 9 22 -5 6 -10 15 -18 21 -18 6
0 8 3 5 6 -10 10 33 66 47 61 14 -5 107 21 124 35 8 7 16 7 26 -1 8 -7 16 -8
18 -3 1 4 20 18 41 31 22 14 37 30 37 42 0 14 9 21 30 26 37 7 37 11 3 39 -23
18 -25 24 -15 37 11 13 10 16 -8 22 -12 4 -19 13 -17 20 7 17 -36 39 -62 31
-66 -19 -62 -19 -56 7 5 18 2 26 -11 31 -10 4 -20 3 -23 -2 -9 -13 -74 17 -68
31 4 10 -15 12 -77 9 -44 -1 -88 -3 -96 -3 -76 -3 -264 33 -276 52 -3 5 0 9 6
9 6 0 9 4 6 9 -3 5 -14 7 -24 4 -10 -2 -24 3 -31 11 -8 9 -22 16 -33 16 -12 0
-23 11 -30 31 l-11 32 -17 -22 -16 -22 -19 25 c-21 27 -41 35 -32 13 4 -10 -3
-12 -27 -9 -53 8 -106 87 -106 160 0 24 -15 30 -23 10 -2 -7 -8 -10 -12 -6
-11 10 22 58 40 58 8 0 15 4 15 9 0 11 38 21 56 14 8 -3 14 -16 14 -28 0 -32
10 -36 53 -24 27 7 44 6 69 -4 18 -8 50 -12 70 -9 29 3 39 0 49 -16 13 -20 13
-20 37 -1 30 23 48 24 56 4 5 -15 35 -10 47 8 4 5 53 11 110 14 57 3 107 10
111 16 4 7 11 7 21 -1 19 -16 143 -11 140 6 -4 17 17 15 37 -3 14 -12 23 -13
46 -5 23 9 31 8 41 -6 6 -9 18 -14 26 -11 8 3 33 1 56 -4 28 -6 48 -6 62 1 14
8 27 8 47 -2 15 -7 54 -13 87 -12 33 1 66 -4 74 -9 10 -8 16 -7 26 6 7 11 26
17 48 17 36 0 56 -13 37 -25 -15 -9 -12 -25 5 -25 9 0 18 -7 21 -15 4 -8 14
-15 24 -15 10 0 32 -6 49 -13 28 -12 29 -15 17 -33 -12 -17 -12 -22 3 -39 9
-11 26 -25 36 -31 11 -6 25 -30 31 -54 11 -48 33 -67 79 -72 46 -5 48 -20 6
-39 -32 -14 -40 -23 -45 -54 -4 -22 -3 -42 4 -50 8 -10 8 -15 0 -20 -8 -5 -8
-11 0 -20 8 -10 8 -19 0 -35 -8 -16 -8 -25 0 -35 6 -7 14 -34 16 -60 5 -44 4
-46 -15 -36 -29 16 -33 14 -20 -10 12 -22 10 -25 -34 -50 -10 -6 -27 -7 -38
-4 -19 6 -20 4 -15 -22 7 -29 6 -30 -26 -26 -28 4 -31 2 -17 -9 8 -7 18 -23
21 -36 5 -18 1 -26 -18 -34 -15 -7 -23 -17 -19 -26 4 -10 0 -12 -12 -8 -10 4
-14 4 -10 0 4 -4 2 -13 -4 -21 -9 -10 -6 -18 12 -33 13 -10 19 -19 12 -20 -6
0 -18 6 -25 13 -7 6 -22 19 -32 27 -18 14 -19 13 -14 -8 5 -17 0 -27 -18 -38
-13 -9 -31 -14 -39 -10 -9 3 -15 0 -15 -8 0 -20 12 -27 26 -15 16 13 64 1 64
-17 0 -8 -11 -14 -27 -14 -14 0 -23 -3 -20 -6 11 -11 -33 -42 -52 -37 -15 4
-17 0 -13 -25 4 -29 -18 -50 -39 -36 -5 3 -9 -4 -9 -15 0 -27 -18 -27 -41 1
-11 11 -21 19 -24 16 -3 -2 5 -15 16 -27 27 -28 17 -38 -18 -21 -16 8 -32 15
-38 16 -5 1 -14 3 -20 4 -5 1 -14 2 -19 1 -4 -1 -15 4 -24 11 -8 7 -38 13 -67
13 -48 0 -51 -2 -47 -23 6 -32 -24 -29 -42 6 -10 17 -15 21 -16 11 0 -9 -11
-24 -24 -32 -21 -14 -26 -14 -36 -2 -9 11 -16 12 -25 5 -8 -6 -19 -4 -34 6
-15 11 -34 14 -56 11 -24 -4 -35 -1 -39 9 -3 8 -13 14 -23 14 -14 0 -15 2 -4
9 11 7 10 11 -7 20 -29 15 -50 15 -34 -1 21 -21 13 -37 -20 -40 -28 -2 -41 5
-80 44 -27 25 -48 40 -48 32 0 -25 -16 -15 -36 21 -10 19 -21 35 -25 35 -8 0
-29 71 -29 99 0 25 -12 27 -31 5 -10 -13 -10 -17 2 -24 10 -7 11 -12 2 -21
-13 -13 9 -92 34 -121 23 -26 8 -38 -30 -25 -98 32 -110 45 -97 100 6 28 5 34
-6 30 -8 -3 -14 0 -14 6 0 6 -4 11 -10 11 -5 0 -10 -9 -10 -20 0 -11 -4 -20
-10 -20 -5 0 -10 8 -10 18 0 10 -9 25 -20 35 -11 9 -20 26 -20 37 0 13 -7 20
-20 20 -24 0 -26 -15 -4 -24 13 -5 15 -15 10 -52 -8 -62 -23 -89 -41 -74 -8 6
-11 18 -8 26 10 26 -6 64 -27 64 -11 0 -20 5 -20 10 0 18 -28 11 -35 -9 -4
-13 -12 -17 -25 -14 -16 4 -18 0 -14 -39 2 -23 1 -37 -2 -30 -3 6 -12 12 -19
12 -7 0 -15 6 -18 13 -6 16 0 93 8 107 11 18 -14 11 -35 -10 -11 -11 -15 -20
-9 -20 6 0 9 -5 7 -11 -5 -15 -76 -39 -94 -32 -10 4 -12 0 -8 -11 4 -10 1 -16
-9 -16 -8 0 -17 7 -21 15 -8 22 -33 7 -39 -23 -6 -30 -43 -82 -57 -82 -5 0 -7
7 -4 15 4 8 1 22 -5 29 -8 10 -9 16 -1 21 20 12 10 25 -20 25 -25 0 -30 4 -30
23 0 37 -12 40 -26 7 -13 -30 -34 -41 -34 -17 0 9 -2 9 -8 0 -5 -8 -13 -9 -22
-3 -11 7 -12 10 -2 10 7 0 10 5 6 11 -4 6 -20 8 -39 5 -28 -6 -35 -3 -40 13
-3 11 -1 30 5 41 17 31 6 52 -24 44 -13 -3 -27 -1 -30 5 -4 5 -13 8 -22 4 -10
-4 -19 4 -27 26 -6 17 -15 31 -19 31 -4 0 -8 9 -8 20 0 11 -4 20 -9 20 -13 0
-19 46 -9 64 7 13 4 16 -18 16 -19 0 -25 4 -21 15 4 8 2 17 -2 20 -5 2 -7 27
-5 55 2 34 0 50 -9 50 -7 1 -5 6 6 14 9 7 17 23 17 35 0 12 8 25 18 28 21 8
62 50 62 64 0 6 3 8 8 6 4 -3 18 -1 31 4 23 9 23 10 6 29 -10 11 -29 20 -42
20 -19 0 -23 5 -23 32 0 34 -38 128 -52 128 -4 0 -8 7 -8 16 0 8 5 12 10 9 6
-3 10 -1 10 5 0 6 -12 15 -27 21 -26 10 -27 12 -8 19 19 7 19 8 2 15 -14 6
-15 10 -6 21 9 11 8 14 -7 15 -16 0 -16 2 4 11 35 18 27 34 -15 30 -36 -3 -37
-3 -14 10 34 18 41 43 10 33 -17 -6 -8 8 34 51 32 32 52 61 46 63 -6 2 -14 -1
-18 -6 -11 -16 -72 -55 -78 -50 -8 9 7 27 21 27 8 0 19 7 26 15 10 12 10 15
-3 15 -9 0 -19 -5 -23 -11 -4 -7 -10 -7 -16 -1 -17 17 1 32 30 26 19 -4 33 0
41 10 7 9 17 13 22 10 5 -3 9 2 9 10 0 9 5 17 10 17 6 1 14 2 19 3 5 0 13 4
17 9 11 10 42 9 49 -3z m339 -115 c-7 -16 -24 -21 -24 -6 0 8 7 13 27 20 1 1
0 -6 -3 -14z m116 9 c0 -7 -41 -66 -51 -74 -3 -3 -9 -12 -12 -20 -4 -12 -6
-11 -6 3 -1 21 27 79 43 89 13 9 26 10 26 2z m2010 -30 c0 -8 -4 -12 -10 -9
-5 3 -10 13 -10 21 0 8 5 12 10 9 6 -3 10 -13 10 -21z m-34 -40 c-8 -22 -23
-9 -23 20 0 22 1 23 14 10 8 -8 12 -21 9 -30z m469 15 c-3 -10 -1 -20 5 -24
13 -8 12 -16 -4 -38 -8 -10 -20 -15 -30 -11 -17 7 -22 34 -6 34 19 0 10 32
-10 37 -33 9 -22 24 15 21 28 -2 34 -6 30 -19z m55 1 c0 -5 -4 -10 -10 -10 -5
0 -10 5 -10 10 0 6 5 10 10 10 6 0 10 -4 10 -10z m-120 -30 c0 -5 -2 -10 -4
-10 -3 0 -8 5 -11 10 -3 6 -1 10 4 10 6 0 11 -4 11 -10z m65 -70 c-3 -5 -12
-10 -18 -10 -7 0 -6 4 3 10 19 12 23 12 15 0z m-499 -58 c-3 -3 -1 -11 5 -19
7 -7 7 -13 2 -13 -5 0 -15 11 -21 25 -9 20 -9 23 4 18 8 -3 12 -8 10 -11z
m-1903 -133 c-5 -20 -40 -36 -51 -24 -4 4 -1 10 6 12 6 3 9 9 6 15 -3 5 2 15
12 23 22 15 34 3 27 -26z m-283 11 c0 -5 -2 -10 -4 -10 -3 0 -8 5 -11 10 -3 6
-1 10 4 10 6 0 11 -4 11 -10z m2540 -21 c0 -10 -4 -19 -10 -19 -5 0 -10 12
-10 26 0 14 4 23 10 19 6 -3 10 -15 10 -26z m-2124 10 c20 -17 17 -26 -11 -33
-29 -7 -105 14 -105 30 0 15 98 18 116 3z m1857 -256 c-8 -3 -11 -14 -7 -29 7
-27 -7 -32 -27 -8 -11 14 -10 18 6 30 10 8 24 14 29 13 6 0 5 -3 -1 -6z m367
-33 c-8 -5 -17 -7 -19 -4 -3 3 1 9 9 14 8 5 17 7 19 4 3 -3 -1 -9 -9 -14z
m-610 0 c0 -5 -7 -10 -15 -10 -8 0 -15 5 -15 10 0 6 7 10 15 10 8 0 15 -4 15
-10z m70 -31 c0 -5 -4 -9 -8 -9 -5 0 -9 7 -9 15 0 8 4 12 9 9 4 -3 8 -9 8 -15z
m-50 -20 c-11 -8 -9 -9 9 -4 16 5 22 3 19 -6 -5 -14 -38 -22 -38 -8 0 5 -10
14 -22 18 l-23 9 25 10 c30 12 53 -3 30 -19z m580 21 c18 -12 2 -12 -25 0 -13
6 -15 9 -5 9 8 0 22 -4 30 -9z m-370 -40 c0 -5 -4 -10 -10 -10 -5 0 -10 5 -10
10 0 6 5 10 10 10 6 0 10 -4 10 -10z m-160 -39 c0 -17 5 -33 11 -37 7 -4 7
-10 1 -16 -6 -6 -15 -7 -21 -4 -14 9 -15 86 -1 86 6 0 10 -13 10 -29z m-30 -8
c0 -13 -3 -13 -15 -3 -8 7 -15 16 -15 21 0 5 7 6 15 3 8 -4 15 -13 15 -21z
m520 -3 c0 -5 -2 -10 -4 -10 -3 0 -8 5 -11 10 -3 6 -1 10 4 10 6 0 11 -4 11
-10z m-410 -4 c0 -11 -19 -15 -25 -6 -3 5 1 10 9 10 9 0 16 -2 16 -4z m-29
-89 c-7 -7 -14 -8 -21 -1 -6 6 -2 10 12 11 16 2 18 -1 9 -10z m-11 -33 c0 -2
-7 -4 -15 -4 -8 0 -15 4 -15 10 0 5 7 7 15 4 8 -4 15 -8 15 -10z m-2420 -100
c0 -8 -5 -12 -10 -9 -6 4 -8 11 -5 16 9 14 15 11 15 -7z m412 -156 c-15 -15
-24 -6 -16 16 5 12 10 14 17 7 8 -8 8 -14 -1 -23z m587 -123 c0 -5 -4 -3 -9 5
-5 8 -9 22 -9 30 0 16 17 -16 18 -35z m2018 3 c-2 -7 -11 -12 -18 -10 -7 2
-19 -5 -26 -14 -12 -17 -13 -17 -13 2 0 27 8 34 38 34 15 0 22 -5 19 -12z
m-1087 -8 c0 -5 -2 -10 -4 -10 -3 0 -8 5 -11 10 -3 6 -1 10 4 10 6 0 11 -4 11
-10z m-230 -25 c0 -8 -4 -15 -10 -15 -5 0 -10 7 -10 15 0 8 5 15 10 15 6 0 10
-7 10 -15z m-460 -5 c0 -5 -4 -10 -10 -10 -5 0 -10 5 -10 10 0 6 5 10 10 10 6
0 10 -4 10 -10z m290 -70 c0 -5 -4 -10 -10 -10 -5 0 -10 5 -10 10 0 6 5 10 10
10 6 0 10 -4 10 -10z m1467 -435 c-4 -8 -11 -15 -17 -15 -7 0 -7 6 0 21 13 23
26 19 17 -6z"/>
<path d="M2800 2370 c0 -5 5 -10 11 -10 5 0 7 5 4 10 -3 6 -8 10 -11 10 -2 0
-4 -4 -4 -10z"/>
<path d="M2770 2354 c0 -8 5 -12 10 -9 6 4 8 11 5 16 -9 14 -15 11 -15 -7z"/>
<path d="M2298 2323 c7 -3 16 -2 19 1 4 3 -2 6 -13 5 -11 0 -14 -3 -6 -6z"/>
<path d="M3650 2306 c0 -8 7 -16 15 -20 9 -3 15 0 15 8 0 8 -7 16 -15 20 -9 3
-15 0 -15 -8z"/>
<path d="M2322 2180 c0 -14 2 -19 5 -12 2 6 2 18 0 25 -3 6 -5 1 -5 -13z"/>
<path d="M2278 2086 c-10 -7 -18 -16 -18 -20 0 -11 35 -7 48 6 27 27 2 39 -30
14z"/>
<path d="M2343 2040 c0 -25 2 -35 4 -22 2 12 2 32 0 45 -2 12 -4 2 -4 -23z"/>
<path d="M2160 2040 c0 -13 5 -20 13 -17 6 2 12 10 12 17 0 7 -6 15 -12 18 -8
2 -13 -5 -13 -18z"/>
<path d="M4320 1851 c5 -11 10 -36 10 -55 0 -44 15 -47 24 -5 8 43 8 46 -10
63 -22 23 -37 20 -24 -3z"/>
<path d="M4300 1826 c0 -9 5 -16 10 -16 6 0 10 4 10 9 0 6 -4 13 -10 16 -5 3
-10 -1 -10 -9z"/>
<path d="M4386 1821 c-4 -7 -5 -15 -2 -18 9 -9 19 4 14 18 -4 11 -6 11 -12 0z"/>
<path d="M2873 1567 c-37 -12 -44 -27 -13 -27 11 0 20 5 20 10 0 6 7 10 15 10
8 0 15 5 15 10 0 6 -1 9 -2 9 -2 -1 -18 -7 -35 -12z"/>
<path d="M3180 1544 c0 -8 5 -12 10 -9 6 3 10 10 10 16 0 5 -4 9 -10 9 -5 0
-10 -7 -10 -16z"/>
<path d="M3268 1523 c7 -3 16 -2 19 1 4 3 -2 6 -13 5 -11 0 -14 -3 -6 -6z"/>
<path d="M2870 1508 c0 -9 5 -20 10 -23 13 -8 13 5 0 25 -8 13 -10 13 -10 -2z"/>
<path d="M2596 1439 c6 -11 31 -12 37 -1 3 4 -6 8 -19 8 -13 1 -21 -2 -18 -7z"/>
<path d="M2630 1395 c0 -13 4 -14 20 -5 11 6 20 13 20 15 0 3 -9 5 -20 5 -11
0 -20 -7 -20 -15z"/>
<path d="M2525 1379 c-4 -6 -5 -13 -2 -16 7 -7 27 6 27 18 0 12 -17 12 -25 -2z"/>
<path d="M5260 5050 c0 -5 5 -10 10 -10 6 0 10 5 10 10 0 6 -4 10 -10 10 -5 0
-10 -4 -10 -10z"/>
<path d="M1001 4936 c-23 -28 -34 -122 -27 -245 3 -68 11 -131 16 -141 6 -10
10 -44 10 -75 0 -31 4 -54 9 -51 5 4 19 35 30 71 12 36 38 100 59 142 20 43
38 86 40 96 2 10 -14 48 -35 85 -21 37 -44 79 -52 94 -17 32 -36 41 -50 24z"/>
<path d="M4820 4820 c0 -5 11 -10 24 -10 14 0 28 5 31 10 4 6 -7 10 -24 10
-17 0 -31 -4 -31 -10z"/>
<path d="M1143 4684 c-3 -8 -1 -20 6 -27 8 -8 11 -4 11 16 0 30 -7 35 -17 11z"/>
<path d="M6160 4623 c0 -22 2 -25 10 -13 13 20 13 40 0 40 -5 0 -10 -12 -10
-27z"/>
<path d="M6047 4608 c-13 -18 -37 -52 -52 -75 -26 -41 -27 -43 -12 -90 40
-129 69 -219 74 -227 10 -15 32 52 44 132 35 236 12 348 -54 260z"/>
<path d="M6336 4623 c-11 -36 -36 -199 -36 -232 0 -19 -4 -48 -9 -65 -11 -35
-32 -196 -35 -271 -1 -27 -7 -59 -13 -70 -6 -11 -13 -47 -17 -80 -3 -33 -12
-97 -20 -142 -7 -46 -10 -83 -7 -83 12 0 33 106 38 198 l6 92 78 0 c46 0 79
-4 79 -10 0 -5 -18 -10 -40 -10 l-40 0 0 -55 0 -55 55 0 c45 0 58 -4 80 -26
33 -32 29 -57 -10 -65 l-30 -6 29 -8 c17 -5 31 -4 35 3 3 6 24 12 46 14 32 2
42 8 53 31 7 15 17 27 23 27 5 0 15 -12 21 -27 9 -22 12 -24 15 -10 3 12 15
17 43 17 21 0 41 6 43 13 3 6 6 0 6 -14 1 -25 46 -89 62 -89 5 0 9 7 9 15 0
14 4 14 36 0 46 -19 44 -19 44 10 0 17 4 23 15 19 8 -3 13 -16 12 -27 -1 -14
4 -22 13 -22 9 0 14 8 13 22 -1 11 4 24 12 27 11 4 15 -3 15 -29 0 -19 5 -35
11 -35 6 0 8 8 4 19 -8 25 15 39 27 17 5 -9 16 -16 23 -16 8 0 15 -6 15 -12 0
-9 4 -8 10 2 5 8 10 10 10 4 0 -15 133 -40 138 -25 2 6 11 11 20 11 13 0 12
-4 -6 -20 -24 -22 -20 -44 11 -72 16 -14 23 -15 34 -6 13 10 12 13 -3 18 -16
6 -15 7 4 12 16 5 22 2 23 -10 0 -11 2 -12 6 -4 7 17 23 15 23 -4 0 -8 5 -25
12 -37 11 -22 12 -22 24 8 l13 30 1 -30 c0 -26 2 -27 11 -12 12 21 29 13 29
-14 0 -15 -7 -19 -35 -19 -19 0 -35 -4 -35 -10 0 -5 7 -7 15 -4 11 5 15 -1 15
-20 0 -19 -5 -26 -20 -26 -11 0 -20 -4 -20 -10 0 -5 8 -10 19 -10 21 0 45 -25
37 -38 -3 -5 -17 -7 -31 -4 -34 6 -31 -3 6 -22 23 -12 36 -13 45 -5 9 7 25 6
56 -5 40 -14 41 -15 13 -15 -34 -1 -401 16 -510 23 -38 3 -133 8 -210 11 -77
3 -228 13 -335 21 -107 9 -211 14 -230 12 l-35 -3 -27 -160 c-32 -189 -36
-295 -12 -295 8 0 12 5 9 10 -3 6 3 10 14 10 34 0 24 -19 -13 -26 -19 -3 -37
-12 -40 -19 -2 -7 -12 -64 -21 -126 -9 -63 -23 -159 -31 -214 -23 -153 -42
-302 -49 -387 -6 -67 -5 -78 9 -78 9 0 16 8 16 18 0 15 6 18 33 15 l32 -4 -25
20 -25 21 25 20 c30 24 44 26 36 5 -3 -8 -3 -30 1 -47 l6 -33 11 45 11 45 78
3 77 3 0 39 c0 57 28 55 33 -2 l4 -43 1 43 c2 39 4 42 30 42 22 0 30 7 44 40
13 32 22 40 42 40 16 0 26 -6 26 -15 0 -19 19 -19 26 0 4 8 11 12 17 8 6 -3 7
-1 3 6 -4 6 -12 9 -17 6 -14 -9 -11 11 5 24 7 6 20 9 29 5 10 -3 22 4 33 20
16 26 19 26 123 27 161 0 233 4 269 16 26 10 32 9 32 -3 0 -16 26 -19 35 -4 9
14 43 12 48 -2 3 -10 9 -10 29 0 30 16 36 16 198 2 69 -6 171 -11 228 -10 62
1 102 -2 102 -8 0 -6 9 -8 20 -5 11 3 17 10 13 16 -4 7 2 7 18 2 13 -5 48 -9
76 -10 29 -1 56 -4 59 -8 4 -4 17 -7 29 -7 11 0 26 -5 32 -11 11 -11 136 -30
206 -31 15 -1 27 -6 27 -12 0 -6 5 -3 11 7 10 17 12 17 36 2 19 -13 27 -14 39
-4 12 10 20 6 45 -19 16 -17 44 -34 62 -37 18 -4 47 -16 65 -26 18 -10 39 -19
45 -19 21 0 86 -60 81 -74 -3 -7 6 -21 20 -30 15 -9 26 -25 26 -36 0 -12 10
-25 24 -31 13 -6 27 -20 29 -30 3 -11 12 -19 20 -19 15 0 63 -67 59 -82 -1 -5
4 -8 12 -8 7 0 16 -9 19 -20 3 -11 16 -24 29 -29 14 -5 33 -22 43 -38 19 -29
34 -47 85 -100 16 -17 30 -35 30 -40 0 -4 14 -19 31 -33 45 -37 63 -55 75 -76
9 -16 21 -18 65 -16 107 6 256 5 392 -3 l137 -7 0 81 0 81 -30 0 c-16 0 -132
5 -257 11 l-228 11 -26 28 c-14 15 -34 38 -45 52 -10 13 -38 46 -61 74 -23 27
-88 103 -143 169 -56 66 -135 158 -175 205 -88 103 -154 186 -177 221 -13 20
-14 29 -5 38 6 6 16 36 22 66 9 45 9 58 -2 67 -10 8 -11 13 -2 18 16 11 2 30
-17 23 -8 -3 -13 -12 -10 -20 3 -8 1 -11 -4 -8 -6 3 -9 26 -8 51 3 41 5 44 31
44 16 0 26 4 23 8 -3 5 8 7 23 4 16 -2 32 1 35 7 4 6 0 11 -8 11 -33 0 -14 19
27 27 33 7 41 13 39 27 -2 11 0 22 5 25 16 10 73 176 73 209 0 27 4 32 25 32
23 0 24 3 22 50 -2 45 -4 50 -26 50 -22 0 -23 3 -18 43 2 23 3 36 0 30 -6 -18
-30 -16 -37 2 -4 11 1 15 19 15 30 0 24 25 -8 35 -14 4 -17 8 -9 12 6 2 12 21
12 40 0 28 8 43 39 72 43 40 52 59 40 82 -6 11 -4 21 6 29 13 10 15 8 15 -14
0 -14 5 -26 10 -26 17 0 15 50 -2 61 -6 4 -1 10 11 14 12 4 20 12 18 18 -9 24
23 46 61 42 33 -4 34 -4 7 3 l-30 8 33 11 c33 12 42 21 20 20 -38 -1 -49 4
-46 20 2 10 10 18 18 18 8 0 32 17 54 38 21 21 51 40 66 44 26 5 27 8 23 44
-5 31 -2 39 11 39 22 0 51 70 34 82 -9 5 -6 8 10 8 16 0 22 -6 22 -22 1 -21 2
-22 14 -5 7 9 26 17 42 18 27 0 28 1 7 9 -29 12 -31 50 -3 57 11 3 20 10 20
15 0 5 -4 7 -9 4 -5 -4 -12 0 -14 6 -4 10 -6 10 -6 1 -1 -15 -31 -18 -31 -3 0
5 11 17 25 26 22 15 26 15 40 0 17 -17 45 -22 45 -8 0 16 62 72 73 65 5 -3 7
-1 4 4 -4 6 7 16 26 23 17 7 26 14 20 17 -7 2 -13 9 -13 15 0 7 17 8 48 4 28
-3 41 -2 33 3 -10 6 -6 13 18 27 17 10 34 26 37 36 4 13 16 18 40 18 19 0 34
4 34 10 0 5 16 12 35 16 19 3 35 12 35 19 0 9 -29 13 -107 14 -60 1 -133 3
-163 6 -30 2 -170 11 -310 19 -140 9 -266 18 -280 21 -14 2 -164 11 -335 20
-170 8 -341 17 -380 20 -38 3 -158 9 -265 15 -164 8 -544 30 -599 34 -26 2
-18 -27 9 -31 14 -2 31 -11 38 -21 13 -16 14 -16 26 1 7 9 21 17 30 17 22 0
23 -96 0 -128 -14 -20 -17 -21 -42 -8 -15 8 -44 14 -65 14 -29 0 -41 -6 -57
-28 -26 -37 -25 -43 5 -36 33 8 50 -1 35 -19 -7 -8 -9 -19 -5 -25 3 -5 0 -10
-8 -10 -8 0 -22 -9 -33 -21 -15 -17 -16 -23 -6 -40 10 -15 10 -19 -2 -19 -10
0 -16 -19 -21 -65 -4 -35 -5 -71 -1 -80 3 -9 0 -15 -9 -15 -8 0 -15 -9 -15
-19 0 -11 -3 -27 -7 -37 -5 -14 -9 -9 -19 22 -9 29 -12 33 -13 15 -1 -17 -5
-21 -17 -17 -9 3 -18 6 -21 6 -3 0 0 7 7 15 11 13 6 15 -31 16 -72 2 -103 12
-107 34 -2 15 -1 16 6 7 6 -9 9 3 9 35 1 26 5 89 9 138 9 88 9 90 37 93 l27 3
-20 26 c-13 16 -17 30 -11 37 5 6 9 33 10 60 0 26 5 54 12 62 21 25 -1 32
-118 38 -65 4 -147 9 -183 12 -212 17 -228 16 -234 -3z m2994 -197 c0 -2 -13
-6 -29 -8 -17 -2 -28 -1 -25 4 5 8 54 12 54 4z m-2563 -118 c-3 -8 -6 -5 -6 6
-1 11 2 17 5 13 3 -3 4 -12 1 -19z m-450 -20 c-3 -7 -5 -2 -5 12 0 14 2 19 5
13 2 -7 2 -19 0 -25z m183 28 c0 -2 -7 -6 -15 -10 -8 -3 -15 -1 -15 4 0 6 7
10 15 10 8 0 15 -2 15 -4z m10 -80 c0 -2 -9 -2 -20 1 -11 3 -20 9 -20 15 0 5
9 4 20 -2 11 -6 20 -12 20 -14z m207 -2 c-3 -3 -12 -4 -19 -1 -8 3 -5 6 6 6
11 1 17 -2 13 -5z m-138 -17 c6 -8 14 -28 17 -44 5 -26 2 -32 -15 -38 -12 -3
-21 -10 -21 -15 0 -4 -15 -7 -32 -5 -25 2 -33 7 -33 21 0 11 -4 22 -10 26 -5
4 1 8 14 8 13 0 21 -3 18 -7 -9 -9 12 -33 29 -33 8 0 14 7 14 15 0 8 5 15 11
15 6 0 9 10 7 23 -2 18 -8 21 -35 19 -32 -3 -46 11 -20 21 23 10 44 7 56 -6z
m-265 -49 c8 -5 7 -11 -2 -20 -14 -14 -16 -52 -2 -43 6 3 10 -1 10 -9 0 -20
-14 -20 -34 0 -14 13 -14 19 -3 42 8 15 12 36 10 47 -2 13 0 15 4 5 3 -8 11
-18 17 -22z m446 -80 c0 -5 -4 -8 -10 -8 -5 0 -10 10 -10 23 0 18 2 19 10 7 5
-8 10 -18 10 -22z m2200 7 c0 -8 -4 -15 -10 -15 -5 0 -7 7 -4 15 4 8 8 15 10
15 2 0 4 -7 4 -15z m-2265 -5 c3 -5 -3 -10 -15 -10 -12 0 -18 5 -15 10 3 6 10
10 15 10 5 0 12 -4 15 -10z m-168 -6 c-3 -3 -12 -4 -19 -1 -8 3 -5 6 6 6 11 1
17 -2 13 -5z m39 -45 c1 -44 1 -44 -3 -4 -3 22 -10 44 -16 48 -8 6 -7 7 3 4
10 -2 15 -18 16 -48z m67 44 c-7 -2 -19 -2 -25 0 -7 3 -2 5 12 5 14 0 19 -2
13 -5z m-322 -13 c5 0 9 -7 9 -15 0 -8 -7 -15 -15 -15 -8 0 -15 -7 -15 -16 0
-10 6 -14 15 -10 8 3 15 1 15 -4 0 -13 -40 -13 -41 0 -6 47 -3 70 9 65 8 -3
18 -5 23 -5z m89 -30 c0 -38 -2 -40 -30 -40 -28 0 -30 2 -30 40 0 38 2 40 30
40 28 0 30 -2 30 -40z m60 0 c0 -33 -3 -40 -20 -40 -17 0 -20 7 -20 40 0 33 3
40 20 40 17 0 20 -7 20 -40z m400 10 c11 -11 20 -26 20 -32 0 -7 -5 -5 -11 5
-5 9 -19 17 -29 17 -10 0 -24 -8 -29 -17 -6 -10 -11 -12 -11 -5 0 10 28 48 38
51 1 1 11 -8 22 -19z m-131 -49 c10 -7 11 -13 2 -27 -10 -18 -10 -18 -11 3 0
18 -7 22 -42 26 l-43 4 40 1 c22 1 46 -2 54 -7z m71 -23 c0 -19 -2 -20 -10 -8
-13 19 -13 30 0 30 6 0 10 -10 10 -22z m157 16 c-3 -3 -12 -4 -19 -1 -8 3 -5
6 6 6 11 1 17 -2 13 -5z m3 -44 c0 -5 -8 -10 -17 -10 -15 0 -16 2 -3 10 19 12
20 12 20 0z m-491 -34 c-11 -9 -69 -14 -69 -6 0 6 17 10 37 10 20 0 34 -2 32
-4z m289 -13 c0 -10 3 -30 7 -45 9 -34 -9 -38 -20 -5 -12 37 -12 67 1 67 7 0
12 -8 12 -17z m122 7 c0 -5 -9 -10 -19 -10 -11 0 -23 5 -26 10 -4 6 5 10 19
10 14 0 26 -4 26 -10z m77 4 c-3 -3 -12 -4 -19 -1 -8 3 -5 6 6 6 11 1 17 -2
13 -5z m-137 -14 c0 -5 -7 -10 -15 -10 -8 0 -15 5 -15 10 0 6 7 10 15 10 8 0
15 -4 15 -10z m-340 -29 c0 -5 -7 -14 -15 -21 -16 -14 -18 -10 -9 14 6 17 24
22 24 7z m384 0 c6 -10 -22 -37 -29 -29 -8 7 5 38 15 38 5 0 11 -4 14 -9z
m-64 -81 c0 -5 -4 -10 -10 -10 -5 0 -10 5 -10 10 0 6 5 10 10 10 6 0 10 -4 10
-10z m26 -27 c-11 -11 -17 4 -9 23 7 18 8 18 11 1 2 -10 1 -21 -2 -24z m264
-13 c0 -5 -4 -10 -10 -10 -5 0 -10 5 -10 10 0 6 5 10 10 10 6 0 10 -4 10 -10z
m1580 -140 c12 -8 11 -10 -7 -10 -13 0 -23 5 -23 10 0 13 11 13 30 0z m-1218
-82 c-15 -15 -26 -4 -18 18 5 13 9 15 18 6 9 -9 9 -15 0 -24z m1093 2 c3 -5 1
-10 -4 -10 -6 0 -11 5 -11 10 0 6 2 10 4 10 3 0 8 -4 11 -10z m-1015 -10 c8
-5 11 -12 8 -16 -4 -3 -14 1 -23 10 -18 17 -9 21 15 6z m1010 -17 c0 -5 -5
-15 -10 -23 -8 -12 -10 -11 -10 8 0 12 5 22 10 22 6 0 10 -3 10 -7z m-2115
-537 c62 -4 60 -3 47 -18 -6 -7 -12 -17 -14 -23 -1 -5 -7 -8 -13 -6 -5 3 -55
5 -110 6 -90 2 -157 10 -177 21 -4 3 -5 10 -2 18 5 12 109 13 269 2z m345 -21
c58 -3 141 -7 185 -11 44 -3 105 -7 135 -9 30 -2 84 -6 120 -9 36 -3 146 -10
245 -16 246 -14 685 -44 828 -56 42 -4 77 -10 77 -14 0 -17 -27 -28 -60 -26
-125 10 -225 16 -365 22 -186 8 -208 9 -335 18 -52 4 -135 9 -185 11 -250 11
-344 16 -385 21 -25 2 -79 7 -120 9 -162 11 -209 14 -314 24 -60 6 -111 13
-114 15 -2 3 -2 13 2 22 6 15 17 16 94 10 48 -4 134 -9 192 -11z m1630 -235
c0 -5 -4 -10 -10 -10 -5 0 -10 5 -10 10 0 6 5 10 10 10 6 0 10 -4 10 -10z
m-20 -70 c0 -5 -2 -10 -4 -10 -3 0 -8 5 -11 10 -3 6 -1 10 4 10 6 0 11 -4 11
-10z m-940 -150 c0 -5 -7 -10 -15 -10 -8 0 -15 5 -15 10 0 6 7 10 15 10 8 0
15 -4 15 -10z m1640 -742 c0 -7 -5 -20 -10 -28 -8 -12 -10 -9 -10 13 0 15 5
27 10 27 6 0 10 -6 10 -12z"/>
<path d="M6895 4380 c3 -5 8 -10 11 -10 2 0 4 5 4 10 0 6 -5 10 -11 10 -5 0
-7 -4 -4 -10z"/>
<path d="M5792 4173 c-9 -15 -4 -26 27 -58 21 -22 40 -47 44 -55 3 -8 6 2 6
22 1 25 -5 41 -17 50 -10 7 -25 24 -34 36 -16 23 -17 23 -26 5z"/>
<path d="M5720 3990 c0 -5 5 -10 10 -10 6 0 10 5 10 10 0 6 -4 10 -10 10 -5 0
-10 -4 -10 -10z"/>
<path d="M5679 3940 c-13 -10 -18 -19 -11 -20 14 0 17 -70 2 -70 -5 0 -10 -9
-10 -19 0 -11 -4 -23 -10 -26 -18 -11 -11 -59 13 -89 l24 -29 7 43 c4 24 12
50 18 57 8 10 8 20 -1 36 -9 17 -9 32 2 67 21 69 9 86 -34 50z m1 -175 c0 -8
-4 -15 -10 -15 -5 0 -7 7 -4 15 4 8 8 15 10 15 2 0 4 -7 4 -15z"/>
<path d="M6400 3780 c0 -13 7 -20 20 -20 23 0 26 10 8 28 -18 18 -28 15 -28
-8z"/>
<path d="M6690 3750 c19 -13 30 -13 30 0 0 6 -10 10 -22 10 -19 0 -20 -2 -8
-10z"/>
<path d="M6320 3740 c0 -5 5 -10 10 -10 6 0 10 5 10 10 0 6 -4 10 -10 10 -5 0
-10 -4 -10 -10z"/>
<path d="M6380 3740 c0 -5 5 -10 10 -10 6 0 10 5 10 10 0 6 -4 10 -10 10 -5 0
-10 -4 -10 -10z"/>
<path d="M1414 3689 c-7 -12 15 -31 28 -23 9 6 -1 34 -12 34 -5 0 -12 -5 -16
-11z"/>
<path d="M5608 3695 c-12 -12 5 -44 22 -42 15 1 17 4 7 16 -7 8 -11 17 -9 20
5 8 -13 13 -20 6z"/>
<path d="M6188 3650 c-4 -14 -8 -36 -8 -50 1 -22 2 -23 11 -7 6 9 9 32 7 50
-3 31 -3 31 -10 7z"/>
<path d="M6951 3654 c0 -11 3 -14 6 -6 3 7 2 16 -1 19 -3 4 -6 -2 -5 -13z"/>
<path d="M5645 3627 c-4 -10 -5 -21 -1 -24 10 -10 18 4 13 24 -4 17 -4 17 -12
0z"/>
<path d="M5563 3603 c-13 -2 -23 -11 -23 -19 0 -12 5 -12 28 3 42 26 42 25 -5
16z"/>
<path d="M6171 3534 c0 -11 3 -14 6 -6 3 7 2 16 -1 19 -3 4 -6 -2 -5 -13z"/>
<path d="M6160 3472 c0 -19 27 -38 38 -27 3 3 0 5 -6 5 -7 0 -12 6 -12 14 0 8
-4 18 -10 21 -5 3 -10 -3 -10 -13z"/>
<path d="M7196 3431 c-3 -4 6 -6 19 -3 14 2 25 6 25 8 0 8 -39 4 -44 -5z"/>
<path d="M7280 3425 c0 -8 7 -15 15 -15 8 0 15 7 15 15 0 8 -7 15 -15 15 -8 0
-15 -7 -15 -15z"/>
<path d="M2027 3349 c-4 -16 -3 -18 9 -8 16 13 19 29 5 29 -5 0 -11 -9 -14
-21z"/>
<path d="M1505 3330 c-17 -7 -15 -9 12 -9 17 -1 35 4 38 9 7 12 -22 12 -50 0z"/>
<path d="M8660 3330 c0 -5 7 -10 15 -10 8 0 15 5 15 10 0 6 -7 10 -15 10 -8 0
-15 -4 -15 -10z"/>
<path d="M1993 3301 c-10 -16 -9 -20 4 -25 9 -4 18 -4 21 -1 3 3 1 5 -5 5 -6
0 -9 9 -6 20 7 25 1 26 -14 1z"/>
<path d="M5951 3222 c-14 -53 -27 -128 -31 -167 -4 -38 -16 -128 -28 -200 -26
-165 -39 -299 -31 -322 4 -12 9 0 13 32 4 28 11 77 16 110 14 92 29 204 35
260 3 28 10 70 15 95 13 66 42 281 38 285 -2 2 -14 -40 -27 -93z"/>
<path d="M1490 3250 c0 -15 -7 -20 -25 -20 -14 0 -25 -5 -25 -11 0 -5 9 -9 19
-7 11 2 32 -8 47 -22 18 -17 25 -19 21 -9 -3 9 -1 21 5 27 7 7 4 18 -7 36 -21
31 -35 34 -35 6z"/>
<path d="M1713 3200 c-13 -5 -23 -11 -23 -14 0 -6 60 11 68 19 8 8 -20 5 -45
-5z"/>
<path d="M1620 3069 c0 -5 5 -7 10 -4 6 3 10 8 10 11 0 2 -4 4 -10 4 -5 0 -10
-5 -10 -11z"/>
<path d="M3967 3061 c5 -20 43 -37 43 -19 0 11 -29 37 -42 38 -3 0 -4 -9 -1
-19z"/>
<path d="M1650 3000 c-6 -11 -7 -20 -2 -20 10 0 32 21 32 32 0 16 -19 8 -30
-12z"/>
<path d="M4160 3010 c0 -6 5 -11 10 -11 6 -1 14 -2 18 -3 4 0 27 -10 50 -20
38 -17 45 -18 58 -4 13 13 13 16 -2 29 -16 13 -17 12 -12 -8 7 -28 -8 -30 -36
-4 -24 21 -86 36 -86 21z"/>
<path d="M4040 2990 c0 -5 5 -10 10 -10 6 0 10 5 10 10 0 6 -4 10 -10 10 -5 0
-10 -4 -10 -10z"/>
<path d="M1668 2948 c9 -9 15 -9 24 0 9 9 7 12 -12 12 -19 0 -21 -3 -12 -12z"/>
<path d="M4420 2930 c0 -5 5 -10 11 -10 5 0 7 5 4 10 -3 6 -8 10 -11 10 -2 0
-4 -4 -4 -10z"/>
<path d="M5335 2910 c3 -5 8 -10 11 -10 2 0 4 5 4 10 0 6 -5 10 -11 10 -5 0
-7 -4 -4 -10z"/>
<path d="M4630 2748 c0 -3 7 -19 15 -34 8 -16 15 -22 15 -14 -1 8 -7 24 -15
34 -8 11 -15 17 -15 14z"/>
<path d="M5338 2713 c7 -3 16 -2 19 1 4 3 -2 6 -13 5 -11 0 -14 -3 -6 -6z"/>
<path d="M5847 2491 c-4 -17 -3 -21 5 -13 5 5 8 16 6 23 -3 8 -7 3 -11 -10z"/>
<path d="M5841 2424 c0 -11 3 -14 6 -6 3 7 2 16 -1 19 -3 4 -6 -2 -5 -13z"/>
<path d="M6401 2374 c0 -11 3 -14 6 -6 3 7 2 16 -1 19 -3 4 -6 -2 -5 -13z"/>
<path d="M4750 2329 c0 -5 5 -7 10 -4 6 3 10 8 10 11 0 2 -4 4 -10 4 -5 0 -10
-5 -10 -11z"/>
<path d="M6400 2330 c0 -5 5 -10 11 -10 5 0 7 5 4 10 -3 6 -8 10 -11 10 -2 0
-4 -4 -4 -10z"/>
<path d="M4735 2230 c3 -5 12 -7 20 -3 21 7 19 13 -6 13 -11 0 -18 -4 -14 -10z"/>
<path d="M5791 2114 c0 -11 3 -14 6 -6 3 7 2 16 -1 19 -3 4 -6 -2 -5 -13z"/>
<path d="M5960 2070 c0 -5 5 -10 10 -10 6 0 10 5 10 10 0 6 -4 10 -10 10 -5 0
-10 -4 -10 -10z"/>
<path d="M5776 2005 c-3 -8 -1 -15 4 -15 6 0 10 7 10 15 0 8 -2 15 -4 15 -2 0
-6 -7 -10 -15z"/>
<path d="M5282 1955 c0 -16 2 -22 5 -12 2 9 2 23 0 30 -3 6 -5 -1 -5 -18z"/>
<path d="M5756 1895 c-3 -8 -1 -15 4 -15 6 0 10 7 10 15 0 8 -2 15 -4 15 -2 0
-6 -7 -10 -15z"/>
<path d="M5265 1800 c3 -5 8 -10 11 -10 2 0 4 5 4 10 0 6 -5 10 -11 10 -5 0
-7 -4 -4 -10z"/>
<path d="M5220 1770 c0 -5 9 -10 20 -10 11 0 20 5 20 10 0 6 -9 10 -20 10 -11
0 -20 -4 -20 -10z"/>
</g>
</svg>
